<svg id="Layer_1" data-name="Layer 1" xmlns="http://www.w3.org/2000/svg" viewBox="0 0 4999.76 891.49"><defs><style>.cls-1{fill:#603912;}.cls-2{fill:#019966;}</style></defs><title>main-bg</title><path class="cls-1" d="M132-137H2898V753H886c.5-7.51,2.08-15.11-1.78-23.15a77.27,77.27,0,0,0-8.75,1.4c-4.8,1.36-9.44,3.31-14.26,4.6a60.77,60.77,0,0,1-12.7,2.32,13.26,13.26,0,0,1-13-7.72c-2.3-4.55.32-8.34,2.83-11.94,1.72-2.45,3.92-4.64,5.17-7.3.7-1.49.57-4.24-.4-5.42s-3.59-1.82-5.29-1.54a17.45,17.45,0,0,0-6.25,2.91c-2.78,1.82-5.29,4.05-8,5.94-10.08,6.94-13.68,6-19.52-4.57-1.9-3.42-3.88-8.12-6.95-9.28-5.34-2-5.56-5.87-6.6-10-1.19-4.71-2.68-9.35-4-14a13,13,0,0,1-.55-3.85c.4-10,.91-20,1.34-30,.1-2.35,0-4.7,0-7-3.82,10.23-5.7,20.75-9.07,30.78-7.92,23.58-8.35,23.76-15.49,28.73,1.07-15.88,4.82-30.35,9.12-45L765,656.47c.82-7.66,3.41-13.67-3-18.75,1.14,15.28-3.69,27.62-15.57,37.13l-1.9-3.59c-4.63,3.39-6.56,9.67-14.17,10.68.44-14.7,5.53-27.72,9.16-40.86,3.74-13.53,9.4-26.52,14.22-39.75l-1.77-.74c-5.64,12.71-11.72,25.26-16.79,38.19-4.62,11.76-8.1,24-12.19,35.94-1.29,3.78-2.26,8-8.21,9.65,7.15-33.57,11.22-66.61,24.2-97.61a176.46,176.46,0,0,0-14.14,31.81c-5.35,16.81-9.65,33.95-14.49,50.92-.94,3.29-.8,7.34-4.73,9-.94-.6-2-1-2-1.28q3.64-28.35,7.45-56.66c-6,15.18-7.64,31.67-14.75,46.81a25.15,25.15,0,0,1-3.67-9c-.3-1.22.06-3.4-.51-3.63-7.23-3-7.23-10.74-10.85-16.06-5.15-7.57-5.77-15.35-1.23-23.41l4.2-5.94-1.72-.89-2.31,7a23,23,0,0,0-2.5,1.59c-2.21,1.82-4.55,5.39-7.34,2.14-1.46-1.71-1.41-5.66-.63-8.16,1.66-5.37,4.37-10.41,6.37-15.69.94-2.46,1.22-5.18,1.92-8.35-4.75,1.94-8.14,3.11-11.33,4.68-4.15,2-9,3.55-12,6.73a130.83,130.83,0,0,0-15.13,19.59c-6.61,10.35-12.43,21.22-18.7,31.79a79.63,79.63,0,0,1-5,6.79l-1.82-.77,2.1-11.58-1.42-.75L602.8,656.25c-2.49-7.54,1.21-12.1,2.3-17A153.23,153.23,0,0,1,609,623.75c1.77-5.35,4.07-10.53,6.35-15.7,2-4.46,4.21-8.8,6.33-13.19-14.42,16.23-19.72,36.69-26.89,55.51l-19.91,2.34q1.54,5.4,3.1,10.84l.15-.25c-2.31,5.84-4.56,11.71-6.95,17.52-3.57,8.67-7.08,17.38-14.48,24.18q2.64-15.93,5.27-31.86,3.43-4.89,6.88-9.76L567,662.29c-3.13,2.9-4.54,6.68-4.9,11L555.21,678c4-10.18,7.66-19.47,11.31-28.76L565.11,647c-.39-1.3-.78-2.59-1.18-3.89l5.29-2.95-2.4-2.05-2.71,5.19-6.23,7.8.16-.26c-3-.5-3.78-2.3-3.07-5.06,2.29-9,4.16-18.18,11.68-23.45-1.1-2-2.86-3.87-2.48-4.85,4.24-10.92,9.23-21.54,19.58-28.09,3.82-2.42,8.4-3.63,14.28-6.08-12.91-.42-21.38,4.69-27.18,13.31a224.17,224.17,0,0,0-15.5,27.72A45.12,45.12,0,0,1,539.25,643c-1.65-6.25-2.88-11.63-4.49-16.9a31.87,31.87,0,0,1,2.8-25.91c1.91-3.43,3-7.35,4.38-11.05l3.68-4.15-1.21-.85c-.76,1.73-1.53,3.45-2.29,5.18-4.59,5.91-11.07,11.16-13.41,17.86-6.9,19.75-12.16,40.07-18.05,60.17-2.76,9.42-8.34,16.8-16,23.86-4.54-10.34.77-18,3.56-25.89s6.09-15.84,9.23-23.9l-7.24.65c2.65-5.47,4.72-9.9,6.93-14.25,5.56-11,11.19-21.87,16.79-32.8,3.05-1.16,4.44-3.22,2.68-6.88-.84,2.34-1.67,4.69-2.51,7L508,616.66a26.36,26.36,0,0,1,.92-9.16c.54-2.5,1-5,1.54-7.52l-2.71-.84c-5.55,36.7-27.17,65.11-46.68,94.71a20.79,20.79,0,0,1,2.4-9.22c5.56-11.36,11.3-22.63,16.81-34,1-2,1.23-4.45,1.81-6.69-11.76,9.52-15.61,24.35-27.09,33.66a45.21,45.21,0,0,1,9.11-35.19c7.68-10,16.29-19.23,24.49-28.8l-.86-.92-17,13.48a65.36,65.36,0,0,1,25.53-32.86c13.18-9,27.19-16.7,40.84-25q5-3,9.91-6a5.12,5.12,0,0,0-5-.23c-11,5.47-22.12,10.84-33,16.59-17.3,9.15-32.2,21.15-43.47,37.43-1.76,2.54-4.91,4.12-7.42,6.14l-3.9,5.32c-3.62,4.74-7.58,9.25-10.8,14.25-8.06,12.55-15.72,25.36-23.68,38-1.73,2.75-2.51,7-8,6.65,1.24-6.41,1.08-13,3.79-18.09,5.45-10.16,12.47-19.47,18.82-29.15,1.4-2.13,2.7-4.34,5.08-8.19l-16.45,5.07-.09.28c-4.75,4.58-9.77,8.91-14.16,13.81-3.61,4-6.52,8.32-13.09,6.42-1.41-.41-3.84.91-5.08,2.15-1.81,1.79-3,4.24-4.39,6.41L383.42,663c3.11-5.21,6.26-10.4,9.3-15.65s6.15-10.83,9.22-16.25l4.19-4.24-1.41-1-2.61,5.41c-4.77,5.44-9.6,10.82-14.28,16.34-2.87,3.39-5.51,7-8.25,10.47-1.7-3-2-5.32-1.41-7.32,1.63-5.4,3.7-10.67,5.51-16,7.86-23.23,21.84-41.85,42.57-55,12.37-7.84,25.31-14.76,38-22.14,2.9-1.68,5.68-3.56,8.52-5.35l-1.2-1.86c-13.9,7.05-27.93,13.86-41.68,21.2-17.91,9.57-33.11,22.28-43.91,39.8-1.19,1.93-2.78,4.77-4.5,5-6.4,1-8.46,6.15-11.26,10.45-8.36,12.83-16.35,25.91-24.62,38.81-1.77,2.76-2.8,6.83-9,6.3,1.81-4,3.07-7.25,4.75-10.32,5.91-10.81,12.12-21.47,17.88-32.36,2-3.74,3-8,4.42-12l4.38-1.86-.88-1.44-3.42,3.66,13.65-25.16A161.88,161.88,0,0,0,358,614c-5.84,7.6-11.33,15.46-17,23.2l-1.22-.45,6.6-25.41-2.63-.67q-7.67,21.88-15.34,43.75l-1.23-.32q.76-6.12,1.54-12.22l-1.42-.58-6,8.66a6.7,6.7,0,0,1-.52,1.41c-4.62-2-1.31-5-.75-7.43,1-4.4,4.15-8.33,3-13.29-4.85,8.83-8.63,18-12.59,27.08C305.83,668.44,299,677.32,292.14,681c5.37-11.19,10.22-21.33,15.11-31.46s9.83-20.26,14.75-30.39l4.26-5.66-1.83-1c-.76,2.29-1.51,4.58-2.27,6.87-2.81,3.64-5.92,7.09-8.4,10.94-7.3,11.33-14.35,22.81-21.5,34.23a35,35,0,0,1,1.21-13.67c3.18-10.25,5.29-20.6,4.85-31.39l2.46-7.69-1.85-.26q-.24,4.07-.46,8.13c-1.15,2-3,3.85-3.34,6-3.3,18.37-14,33.6-21.17,50.3-1.82,4.23-4.88,7.94-7.36,11.88l-1.82-1c1.26-4,2.52-8,3.86-12.18l-5.87-1.47c11.91-30.77,18.4-63.35,39.18-90.14l-1.71-1-18.85,21.83c1.26-5.13,1.93-7.89,2.61-10.66l4.23-5.69-2-1.07c-.7,2.31-1.41,4.61-2.11,6.92-2.7,3.28-5.85,6.29-8,9.88-13.27,21.83-26.3,43.81-39.48,65.7-2.31,3.84-4.94,7.49-7.42,11.23l-2.17-1.1c4-10.65,7.34-21.62,12.22-31.84,3.89-8.15,4.87-16.5,6.39-24.94l-2-1.06L228.1,643.9l-.08,0c-5.11,2.7-5.28-.77-5.89-4.42-3.26-19.34-6.45-38.7-10.16-58a44.5,44.5,0,0,1,.6-20.66c2.4-8.84,4.51-17.76,6.74-26.65l-1.33-.42c-2.93,7.51-5.86,15-8.84,22.66l-3.58-2.17c-.47,7.09-.15,14.45-1.61,21.43-2.73,13-6.43,25.82-9.9,38.66a41.51,41.51,0,0,1-3.88,10.19c-6.41,10.88-13.11,21.6-19.82,32.3a34,34,0,0,1-4.12,4.56l-1.19-.77,5.4-16.69-1.3-.42-8.94,15.84-2.49-1.25,10.57-25.12c-4.2,3.51-6.85,7.69-9.44,11.9-1.7,2.76-3.66,4.82-7.27,3.35l.17.21c2.35-4.27,4.55-8.63,7.1-12.77,4.26-6.92,8.75-13.7,13.15-20.55l3.63-4.16-1.14-.82-2.33,5.16c-.89.42-2.11.6-2.63,1.3-10.32,14-23.88,25.34-33.37,40.08a101.84,101.84,0,0,1-10,12.35c-1.08,1.2-3,1.67-6.71,3.63,4.33-18.67,18.59-28.49,25.55-42.82a195.61,195.61,0,0,0-18.65,18.9c-6,6.82-11.73,13.85-17.58,20.78-.59-.36-1.17-.73-1.75-1.1,5.58-17.34,12.85-34.22,15.67-52.36C111.8,639.52,106.15,665,91.65,687q2.61-10.11,5.23-20.23c-8.09,5.58-9.3,15.73-17.47,20.89,4.81-11.86,12.16-22.32,18-33.58q9.15-17.72,17.54-35.81c5.27-11.27,14.64-20.57,17.4-35.49l-18.92,28.3c.21-1.24.41-2.48.61-3.72l-1.9-.26L111.4,613c-7,6.61-15.22,11.92-20.6,20.33-3.39,5.3-7.83,9.92-11.81,14.85l-1.37-1c.38-2.63.77-5.27,1.48-10.16L68.56,650.74a5.86,5.86,0,0,1-1.11,1c-7.08,7-14.08,14-21.29,20.85-1.27,1.2-3.36,1.53-5.08,2.25a56,56,0,0,1-1.77-6c-.17-.87.48-1.9.73-2.86a49.13,49.13,0,0,1,10.07-19.23c5.79-7,11.07-14.46,16.57-21.71l-1.75-1.4L30.81,661.54c-1.71-8.42,4.28-13,5.33-18.84-1.26-.84-3.21-1.58-3.18-2.21.61-12.35,2.76-24.35,9-35.29L45.52,601l-1.12-.77-2.27,5.12-2.57-1.91-24.8,39.7-2-1c4.66-12.16,6.66-25.28,15.57-35.89a102.21,102.21,0,0,0,22.88-50.35c1.75-11,4-22.23.44-33.62L45,541l.3-.36c-7.29,3.4-4.7-5.49-8.93-6.89.28,9.93,3.35,20.67-8.29,28.53-3.8-26.48-20.86-45.1-33.61-66-16.34-26.76-31.6-54.05-44.25-82.81-3.9-8.84-3.37-15.79,3.32-22.6,4-4.07,7.63-8.47,11.43-12.72l-1.43-1.38L-56,392.94c-4.65-6-3.2-10.81-.34-15.72a175.89,175.89,0,0,1,32.68-41.45C-6.47,319.92,13,308.15,35.92,302.52c21.25-5.21,41-2.19,59.23,10,2.33,1.54,4.9,2.73,9.51,5.27-1.88-6.19-3-10-4.77-15.75,6,3.35,10.57,5.35,14.53,8.2,29.63,21.38,45.82,49.86,43.73,87-2,36.46-19.46,64-51.55,81.37-22.34,12.1-45.16,11.24-66.34-3-20.38-13.73-29.82-33.52-28-58.26.34-4.64,1.32-9.22,2-13.85q1.23-2.85,2.48-5.69l-1.41-.39c-.3,2.09-.61,4.18-.91,6.27-1.55,4.3-4,8.5-4.51,12.92C5.39,455,32.11,487.61,70.74,491.34c2.73.26,5.41.92,8.57,1.48-3,8.47-8.08,16,1.43,22.41l6.75-3.73,11.36,6.28,6.31-12.1c2.25.75,4.08,1.41,6,2,8,2.35,9.43,1.43,10.48-6.6.25-1.91.54-3.81.79-5.49,10.42-2.46,11.51-5.25,5.79-13.41-1.45-2.07-2.92-4.14-4.32-6.12,45.37-43,54.07-91.1,23.07-145.6a96.49,96.49,0,0,1,9.91,12.18,126.46,126.46,0,0,1,7.59,12.91c2.42,4.74,4.53,9.65,6.53,14.58,1.85,4.58,3.37,9.29,5,13.93l2.25-.84c-2.92-9.5-5-19.36-9-28.41a120,120,0,0,0-15-25.79,128.87,128.87,0,0,0-22-21.64c-7.63-6-16.58-10.28-25.12-15.42,3.37-3.11,6.1-5.61,10.32-9.49-4.56-.65-6.75-1.29-8.91-1.22-14.65.5-29.32.85-43.94,1.83a131.23,131.23,0,0,0-50.82,13.61c-30,15.11-53.55,37-69.95,66.4-1.47,2.63-2.1,6.32-6.31,7.17-.32-1.43-.89-2.45-.67-3.26a100.81,100.81,0,0,1,3.32-10.46c23.32-58.72,62.69-102.28,121-127.9,2.12-.93,4.07-2.24,6.1-3.38-19.29,4.59-36.54,13.1-52.52,24.16-33.74,23.36-58.41,54.19-75,91.63-1.36,3.08-1.74,7-6,9-2.79-5.78-1.1-10.86.43-15.87A247.91,247.91,0,0,1-39.16,275a78.17,78.17,0,0,1,14-16.69c22.69-20.29,47.81-37.3,74.31-52.16a160.27,160.27,0,0,0,62.74-62.8,45.32,45.32,0,0,1,10-12.15c18.6-15.77,36.14-32.56,51.88-51.2,19.4-23,37.47-46.87,48.59-75.22,1.07-2.73,3.14-5.37,1.48-9.84-2.5,3.39-4.26,5.76-6,8.14-20,27.47-39.68,55.17-60.09,82.32-8.79,11.69-19,22.31-28.69,33.29-1.73,2-4.18,3.26-7.37,5.68,2.3-9,5.07-15.93,5.77-23.11,3.44-35,4.55-69.94-8.21-103.62-3-7.95-3-14.81,2.59-21.4.53-.63.56-1.67,1.16-3.56l-6.86,5.17c8.68-26,30.21-37.59,53-47.85-22.5,1.29-38.41,13.5-51.31,30.89,5-18,16.82-30.82,28.82-43.68-15.42,9.29-24.94,23.54-33.09,39.17A68.38,68.38,0,0,1,118-58.78a122.92,122.92,0,0,1,7.07-14.33A154.21,154.21,0,0,1,134-86.36c2.9-4,6.11-7.71,9.18-11.55-19.26,14.43-28.63,35-36.28,57.15-4.19-7.79-7.08-15.51-10.41-23-2.59-5.87-1.3-10.34,2.29-15.63,10.08-14.86,19.51-30.17,28.84-45.52C129.78-128.52,130.57-133,132-137ZM573.88,529.35c-2-5.56-2.81-11.8-9.83-15.9.37,8.28,5.62,11.73,10,15.74,1.55,6.39,3.62,12.71,4.55,19.19,1.46,10.31,5.3,19,13.46,25.76,9.58,7.9,31.07,14.61,45.67,13.45-1.49-9.46-.87-19.89-4.89-28-8.32-16.84-22.35-27.69-42.12-29.06Z" transform="translate(2101.76 137)"/><path class="cls-2" d="M562,673.14q-2.64,15.93-5.27,31.86c7.4-6.8,10.91-15.51,14.48-24.18,2.39-5.81,4.64-11.68,6.95-17.53q-2.32,10.86-4.64,21.74a91.11,91.11,0,0,0,12.78-17.35c1.61-2.67,2.2-5.95-.89-7.92-4.13-2.65-5.76.88-7.4,3.79q-1.54-5.43-3.1-10.84l19.91-2.34c7.17-18.82,12.47-39.28,26.89-55.51-2.12,4.39-4.37,8.73-6.33,13.19-2.28,5.17-4.58,10.35-6.35,15.7a153.23,153.23,0,0,0-3.92,15.45c-1.09,4.95-4.79,9.51-2.3,17l11.88-12.84,1.42.75L614,655.74l1.82.77a79.63,79.63,0,0,0,5-6.79c6.27-10.57,12.09-21.44,18.7-31.79a130.83,130.83,0,0,1,15.13-19.59c3-3.18,7.88-4.71,12-6.73,3.19-1.57,6.58-2.74,11.33-4.68-.7,3.17-1,5.89-1.92,8.35-2,5.28-4.71,10.32-6.37,15.69-.78,2.5-.83,6.45.63,8.16,2.79,3.25,5.13-.32,7.34-2.14a23,23,0,0,1,2.5-1.59l-.17-.17c-4.54,8.06-3.92,15.84,1.23,23.41,3.62,5.32,3.62,13.07,10.85,16.06.57.23.21,2.41.51,3.63a25.15,25.15,0,0,0,3.67,9C703.4,652.17,705,635.68,711,620.5q-3.76,28.32-7.45,56.66c0,.27,1,.68,2,1.28,3.93-1.61,3.79-5.66,4.73-9,4.84-17,9.14-34.11,14.49-50.92a176.46,176.46,0,0,1,14.14-31.81c-13,31-17,64-24.2,97.61,5.95-1.62,6.92-5.87,8.21-9.65,4.09-12,7.57-24.18,12.19-35.94,5.07-12.93,11.15-25.48,16.79-38.19l1.77.74c-4.82,13.23-10.48,26.22-14.22,39.75-3.63,13.14-8.72,26.16-9.16,40.86,7.61-1,9.54-7.29,14.17-10.68l1.9,3.59c11.88-9.51,16.71-21.85,15.57-37.13,6.43,5.08,3.84,11.09,3,18.75l6.92-7.59c-4.3,14.6-8,29.07-9.12,45,7.14-5,7.57-5.15,15.49-28.73,3.37-10,5.25-20.55,9.07-30.78,0,2.35.08,4.7,0,7-.43,10-.94,20-1.34,30a13,13,0,0,0,.55,3.85c1.28,4.69,2.77,9.33,4,14,1,4.11,1.26,8,6.6,10,3.07,1.16,5,5.86,6.95,9.28,5.84,10.55,9.44,11.51,19.52,4.57,2.74-1.89,5.25-4.12,8-5.94a17.45,17.45,0,0,1,6.25-2.91c1.7-.28,4.29.33,5.29,1.54s1.1,3.93.4,5.42c-1.25,2.66-3.45,4.85-5.17,7.3-2.51,3.6-5.13,7.39-2.83,11.94a13.26,13.26,0,0,0,13,7.72,60.77,60.77,0,0,0,12.7-2.32c4.82-1.29,9.46-3.24,14.26-4.6a77.27,77.27,0,0,1,8.75-1.4c15.26,14.46,43.86,24.64,60.64,24.64C-51,754.49-1105.67,753-2101.76,753V-137H132c-1.43,4-2.22,8.48-4.4,12.06-9.33,15.35-18.76,30.66-28.84,45.52-3.59,5.29-4.88,9.76-2.29,15.63,3.33,7.52,6.22,15.24,10.41,23,7.65-22.13,17-42.72,36.28-57.15-3.07,3.84-6.28,7.58-9.18,11.55a154.21,154.21,0,0,0-8.92,13.25A122.92,122.92,0,0,0,118-58.78a68.38,68.38,0,0,0-4.36,15.19c8.15-15.63,17.67-29.88,33.09-39.17C134.72-69.9,122.86-57,117.9-39.08c12.9-17.39,28.81-29.6,51.31-30.89-22.79,10.26-44.32,21.81-53,47.85l6.86-5.17c-.6,1.89-.63,2.93-1.16,3.56-5.56,6.59-5.61,13.45-2.59,21.4C132.08,31.35,131,66.3,127.53,101.29c-.7,7.18-3.47,14.16-5.77,23.11,3.19-2.42,5.64-3.73,7.37-5.68,9.7-11,19.9-21.6,28.69-33.29,20.41-27.15,40.1-54.85,60.09-82.32,1.74-2.38,3.5-4.75,6-8.14,1.66,4.47-.41,7.11-1.48,9.84C211.31,33.16,193.24,57,173.84,80c-15.74,18.64-33.28,35.43-51.88,51.2a45.32,45.32,0,0,0-10,12.15,160.27,160.27,0,0,1-62.74,62.8C22.68,221-2.44,238.05-25.13,258.34a78.17,78.17,0,0,0-14,16.69,247.91,247.91,0,0,0-26.58,59.09c-1.53,5-3.22,10.09-.43,15.87,4.23-1.95,4.61-5.9,6-9,16.61-37.44,41.28-68.27,75-91.63,16-11.06,33.23-19.57,52.52-24.16-2,1.14-4,2.45-6.1,3.38-58.33,25.62-97.7,69.18-121,127.9A100.81,100.81,0,0,0-63.1,367c-.22.81.35,1.83.67,3.26,4.21-.85,4.84-4.54,6.31-7.17,16.4-29.44,39.91-51.29,70-66.4A131.23,131.23,0,0,1,64.65,283c14.62-1,29.29-1.33,43.94-1.83,2.16-.07,4.35.57,8.91,1.22-4.22,3.88-7,6.38-10.32,9.49,8.54,5.14,17.49,9.44,25.12,15.42a128.87,128.87,0,0,1,22,21.64,120,120,0,0,1,15,25.79c4,9.05,6.06,18.91,9,28.41L176,384c-1.66-4.64-3.18-9.35-5-13.93-2-4.93-4.11-9.84-6.53-14.58a126.46,126.46,0,0,0-7.59-12.91,96.49,96.49,0,0,0-9.91-12.18c31,54.5,22.3,102.55-23.07,145.6,1.4,2,2.87,4.05,4.32,6.12,5.72,8.16,4.63,10.95-5.79,13.41-.25,1.68-.54,3.58-.79,5.49-1,8-2.49,8.95-10.48,6.6-1.87-.55-3.7-1.21-6-2l-6.31,12.1L87.49,511.5l-6.75,3.73c-9.51-6.38-4.45-13.94-1.43-22.41-3.16-.56-5.84-1.22-8.57-1.48C32.11,487.61,5.39,455,9.9,416.53c.52-4.42,3-8.62,4.51-12.92l-.15-.17c-.69,4.61-1.67,9.19-2,13.83-1.81,24.74,7.63,44.53,28,58.26,21.18,14.27,44,15.13,66.34,3,32.09-17.38,49.51-44.91,51.55-81.37,2.09-37.12-14.1-65.6-43.73-87-4-2.85-8.54-4.85-14.53-8.2,1.73,5.72,2.89,9.56,4.77,15.75-4.61-2.54-7.18-3.73-9.51-5.27-18.27-12.16-38-15.18-59.23-10-23,5.63-42.39,17.4-59.57,33.25a175.89,175.89,0,0,0-32.68,41.45c-2.86,4.91-4.31,9.7.34,15.72l19.48-16.2,1.43,1.38c-3.8,4.25-7.44,8.65-11.43,12.72-6.69,6.81-7.22,13.76-3.32,22.6,12.65,28.76,27.91,56.05,44.25,82.81,12.75,20.89,29.81,39.51,33.61,66,11.64-7.86,8.57-18.6,8.29-28.53,4.23,1.4,1.64,10.29,8.93,6.9-1.48,4.07-3.53,8-4.3,12.21-2.33,12.51-4.15,25.11-6.17,37.67,8-12.71,12.24-26.92,14.67-41.75.32-1.94.62-4.22-.11-5.87-.48-1.08-2.86-1.3-4.39-1.91l6.7-18.66c3.6,11.39,1.31,22.62-.44,33.62a102.21,102.21,0,0,1-22.88,50.35C19.42,616.88,17.42,630,12.76,642.16l2,1,24.8-39.7,2.57,1.91-.17-.18c-6.24,10.93-8.39,22.93-9,35.28,0,.63,1.92,1.37,3.18,2.21-1,5.85-7,10.42-5.33,18.84l34.12-37.87,1.75,1.4c-5.5,7.25-10.78,14.7-16.57,21.71A49.13,49.13,0,0,0,40,666c-.25,1-.9,2-.73,2.86a56,56,0,0,0,1.77,6c1.72-.72,3.81-1,5.08-2.25,7.21-6.83,14.21-13.88,21.27-20.84-3.37,4.51-7,8.82-10,13.53s-8.56,8-8.7,14.41c4.61,2.14,6.91-.22,8.67-3.2,4-6.81,8-13.65,11.62-20.66.67-1.28-.27-3.4-.46-5.14L79.1,637.1c-.71,4.89-1.1,7.53-1.48,10.16l1.37,1c4-4.93,8.42-9.55,11.81-14.85,5.38-8.41,13.58-13.72,20.59-20.33l2-1.95,18.92-28.3c-2.76,14.92-12.13,24.22-17.4,35.49q-8.43,18.06-17.54,35.81c-5.83,11.26-13.18,21.72-18,33.58,8.17-5.16,9.38-15.31,17.47-20.89Q94.26,676.89,91.65,687c14.5-22,20.15-47.49,31-70.88-2.82,18.14-10.09,35-15.67,52.36.58.37,1.16.74,1.75,1.1,5.85-6.93,11.59-14,17.58-20.78A195.61,195.61,0,0,1,145,629.91c-7,14.33-21.22,24.15-25.55,42.82,3.72-2,5.63-2.43,6.71-3.63a101.84,101.84,0,0,0,10-12.35c9.49-14.74,23-26,33.37-40.08.52-.7,1.74-.88,2.63-1.3l-.16-.17c-4.4,6.84-8.89,13.62-13.15,20.54-2.55,4.14-4.75,8.5-7.09,12.78-9,10.47-20.32,31.8-20.12,39.63,5.81-8,11-16.35,16.29-24.67a22.28,22.28,0,0,0,3.65-15.18c3.61,1.47,5.57-.59,7.27-3.35,2.59-4.21,5.24-8.39,9.44-11.9l-10.57,25.12,2.49,1.25,8.94-15.84,1.3.42L165,660.69l1.19.77a34,34,0,0,0,4.12-4.56c6.71-10.7,13.41-21.42,19.82-32.3a41.51,41.51,0,0,0,3.88-10.19c3.47-12.84,7.17-25.65,9.9-38.66,1.46-7,1.14-14.34,1.61-21.43l3.58,2.17c3-7.65,5.91-15.15,8.84-22.66l1.33.42c-2.23,8.89-4.34,17.81-6.74,26.65a44.5,44.5,0,0,0-.6,20.66c3.71,19.25,6.9,38.61,10.16,58,.61,3.65.78,7.12,5.89,4.43q-1.83,5.1-3.64,10.22l2,.65c2.33-3.68,5.36-7.08,5.07-12.84l-3.33,1.93,15.54-22.7,2,1.06c-1.52,8.44-2.5,16.79-6.39,24.94-4.88,10.22-8.22,21.19-12.22,31.84l2.17,1.1c2.48-3.74,5.11-7.39,7.42-11.23,13.18-21.89,26.21-43.87,39.48-65.7,2.18-3.59,5.33-6.6,8-9.88l-.17-.16c-.68,2.77-1.35,5.53-2.61,10.66L300.24,582l1.71,1c-20.78,26.79-27.27,59.37-39.18,90.14l5.87,1.47c-1.34,4.21-2.6,8.2-3.86,12.18l1.82,1c2.48-3.94,5.54-7.65,7.36-11.88,7.19-16.7,17.87-31.93,21.17-50.3.38-2.12,2.19-4,3.34-6l-.14-.17c.43,10.78-1.68,21.13-4.86,31.38a35,35,0,0,0-1.21,13.67c7.15-11.42,14.2-22.9,21.5-34.23,2.48-3.85,5.59-7.3,8.4-10.94l-.16-.16q-7.38,15.18-14.75,30.38c-4.89,10.13-9.74,20.27-15.11,31.46,6.87-3.71,13.69-12.59,18.35-23.27,4-9.08,7.74-18.25,12.59-27.08,1.17,5-2,8.89-3,13.29-.56,2.47-3.87,5.42.74,7.45-6.18,11.35-13.72,22.21-13,36.49,1.67-.53,2.51-.53,2.85-.94,8.39-10.12,10.74-22.57,13.18-34.94.1-.49-1.63-1.35-2.51-2l6-8.66,1.42.58q-.76,6.11-1.54,12.22l1.23.32q7.68-21.87,15.34-43.75l2.63.67-6.6,25.41,1.22.45c5.64-7.74,11.13-15.6,17-23.2a161.88,161.88,0,0,1,19.29-21.54l-13.65,25.16s-.08-.36-.08-.36c-1.44,4-2.44,8.28-4.42,12-5.76,10.89-12,21.55-17.88,32.36-1.68,3.07-2.94,6.36-4.75,10.32,6.22.53,7.25-3.54,9-6.3,8.27-12.9,16.26-26,24.62-38.81,2.8-4.3,4.86-9.5,11.26-10.45,1.72-.26,3.31-3.1,4.5-5,10.8-17.52,26-30.23,43.91-39.8,13.75-7.34,27.78-14.15,41.68-21.2l1.2,1.86c-2.84,1.79-5.62,3.67-8.52,5.35-12.65,7.38-25.59,14.3-38,22.14-20.73,13.13-34.71,31.75-42.57,55-1.81,5.36-3.88,10.63-5.51,16-.61,2-.29,4.28,1.41,7.32,2.74-3.5,5.38-7.08,8.25-10.47,4.68-5.52,9.51-10.9,14.28-16.34l-.17-.16c-3.07,5.42-6.09,10.87-9.22,16.25s-6.19,10.44-9.3,15.65l2.69,2.14c1.43-2.17,2.58-4.62,4.39-6.41,1.24-1.24,3.67-2.56,5.08-2.15,6.57,1.9,9.48-2.38,13.09-6.42,4.39-4.9,9.41-9.23,14.16-13.81-10.7,17.27-23.06,33.6-30.27,52.86,13-14.9,22.9-31.7,31.15-49.51.41-.9-.5-2.4-.79-3.63L439.37,631c-2.38,3.85-3.68,6.06-5.08,8.19-6.35,9.68-13.37,19-18.82,29.15-2.71,5.07-2.55,11.68-3.79,18.09,5.51.3,6.29-3.9,8-6.65,8-12.61,15.62-25.42,23.68-38,3.22-5,7.18-9.51,10.78-14.22-3,6-5.83,12-8.94,17.84-5,9.41-10.21,18.68-15.13,28.12-1.08,2.06-1.32,4.57-2,7h7.66q-1.69,5.54-3.4,11c-2.95,2.52-4.57,5.59-3.17,9.86q1.52-5,3-10.06,1.71-5.53,3.42-11c2.93-5.84,6.22-11.52,8.72-17.54,4.41-10.61,8.47-21.39,12.42-32.19,1-2.61.9-5.58,1.31-8.39,2.51-2,5.66-3.6,7.42-6.14,11.27-16.28,26.17-28.28,43.47-37.43,10.89-5.75,22-11.12,33-16.59a5.12,5.12,0,0,1,5,.23q-4.95,3-9.91,6c-13.65,8.26-27.66,16-40.84,25a65.36,65.36,0,0,0-25.53,32.86l17-13.48.86.92c-8.2,9.57-16.81,18.82-24.49,28.8A45.21,45.21,0,0,0,455,677.59c11.48-9.31,15.33-24.14,27.09-33.66-.58,2.24-.82,4.64-1.81,6.69-5.51,11.38-11.25,22.65-16.81,34a20.79,20.79,0,0,0-2.4,9.22c19.51-29.6,41.13-58,46.68-94.71l2.71.84c-.51,2.51-1,5-1.54,7.52a26.36,26.36,0,0,0-.92,9.16l16.12-21.47-.17-.15c-5.6,10.93-11.23,21.85-16.79,32.8-2.21,4.35-4.28,8.78-6.93,14.25l7.24-.65c-3.14,8.06-6.42,15.9-9.23,23.9s-8.1,15.55-3.56,25.89c7.68-7.06,13.26-14.44,16-23.86,5.89-20.1,11.15-40.42,18.05-60.17,2.34-6.7,8.82-12,13.41-17.86l-.18-.18c-1.43,3.7-2.47,7.62-4.38,11.05a31.87,31.87,0,0,0-2.8,25.91c1.61,5.27,2.84,10.65,4.49,16.9a45.12,45.12,0,0,0,16.1-18.64,224.17,224.17,0,0,1,15.5-27.72c5.8-8.62,14.27-13.73,27.18-13.31-5.88,2.45-10.46,3.66-14.28,6.08-10.35,6.55-15.34,17.17-19.58,28.09-.38,1,1.38,2.8,2.48,4.85-7.52,5.27-9.39,14.46-11.68,23.45-.71,2.76.08,4.56,3.07,5.06,3.66,5,4.72,4.76,8.48-1.61-3.65,9.29-7.3,18.58-11.31,28.76l6.93-4.75ZM6.26,640.94c4.25-3.6,6.28-8.25,7.62-13.22l-2.49-1q-2.48,7.2-5,14.4c-3.08,1.11-5.8,2.51-5.37,6.6ZM99.48,488.66c-5.06,1.28-11.1.37-15.41,7.13,4.09-.55,6.83-1.43,9.47-1.17,4.93.47,5.26-2.75,5.79-6.08,2.87,0,6,2.17,9.23-1.26C104.58,484.78,102.2,487.84,99.48,488.66ZM523.23,647.9l4.13,3.83c6.79-9.38,7.19-16.18,1.17-26.06-1.23,4.18-2.39,7.5-3.17,10.9-.87,3.79-1.39,7.67-2,11.56-3.22,8.38-5,17.06-6.39,28C523.64,666.15,525,657.34,523.23,647.9Zm-267.06,19-7.44,17.45,1.79.83A48.65,48.65,0,0,0,257.81,669c.11-.48-1.22-1.28-1.89-1.94,2.13-3.68,4.05-7.51,6.42-11,5.94-8.79,9-18.71,11.68-28.87a192.45,192.45,0,0,0-19.8,36.19C253.9,664.09,255.48,665.65,256.17,666.85Zm108.77-11L357.29,676c5.44-5.79,8.25-12.4,7.67-20.08q5.7-14.37,11.41-28.74l-2.33-1q-10.57,19.17-21.16,38.34l1.47,1.06Q359.65,660.65,364.94,655.82Zm-184.89-.4c-1,8.94-2,17.87-3.18,28.93,6-9.87,11.83-38.43,10.23-48.14l-7.21,19.51c-2.23-2.16-3.55-.57-4.66,1.22-4.19,6.79-8.37,13.59-12.41,20.46-.75,1.27-.85,2.92-1.25,4.4l1.26.76,6.34-6.26C167.59,683,166.43,688,165.24,693c5,1,5.93-1.68,6.44-4.3,1.38-7.17,2.27-14.44,3.9-21.55C176.51,663.11,178.52,659.33,180.05,655.42Zm452.5,8.25c17.05-7.26,23.36-17.73,13.37-35l9.27,3.43c.67-1.62,1.42-2.56,1.36-3.43-.34-4.72.2-8.27,4.36-12.1,4.84-4.47,4.26-11.24,1.16-17.32C648,604.73,630.77,641.82,632.55,663.67ZM195.19,661l2.43.88c3.3-4.07,6.18-8.61,10-12.09,4.94-4.46,6.9-9.53,6.22-16-1.4-13.23-2.68-26.48-4.13-39.71-.18-1.61-1.09-3.13-1.67-4.69l-2,.15Q200.63,625.29,195.19,661ZM9.11,663.33c4.56,4,8.2,3.5,11.23.15,2.18-2.41,4.44-5.28,5.23-8.32,2.37-9.14,4-18.45,6-27.69l-2.29-.83C21.62,638,15.35,650.11,9.11,663.33ZM196.05,692.7c3.92-6.71,7.87-13.39,11.75-20.12,8.21-14.25,8.48-15.41,5.36-21.88C202.76,660.58,194.72,677.92,196.05,692.7Zm458.24-10.87c8.78-6.08,11-15.51,5.8-25.16C651.15,665.87,649,675.38,654.29,681.83ZM34.5,565.42c-8.27,6.76-5.09,16.42-6.57,25C32.56,582.76,35.36,574.64,34.5,565.42Zm180.73,104.3c-5.89,6.95-9.13,13.34-9.45,21.07C211.15,685.37,216.93,680.15,215.23,669.72Zm185.07-4.8c-7.36,4.1-12.05,9.82-11.36,18.82ZM577,692.59c6.7-3.13,9.45-8.37,8.33-15.68ZM415.15,707.81l2,.44q3.81-7.87,7.64-15.74l-2.55-1.13Zm-309.47-21,1.84,1.58c4.76-3.8,8.11-8.46,7.31-15.69Zm241.2.89c-6.87,3-7.33,3.63-9,12.78Zm-68.3-4.89,2.22.81c3.16-3.38,4.11-7.56,4.15-12.06l-2-.72Zm251.7-1.8,2.64,1.14c2.06-2.19,4.53-4.23,1.86-10.06Zm-407.81,2.58c-4.09,1.78-7.61,3.87-5,9.42ZM661.32,685l-2.6-.64c-.22,1.77-.46,3.53-.56,5.31a5.79,5.79,0,0,0,1.63.39C660.36,688.4,660.83,686.7,661.32,685Zm4.89-84.71,2.39.68,1.17-5.3-1.76-.51ZM146.07,676.88l2,.76,2.49-6.63-1.28-.54ZM403.64,705l1.43.66c1.09-2.33,2.19-4.67,3.29-7l-1.57-.73ZM625,653.15l-1.45-.64-2,4.64,1.43.63C623.61,656.24,624.3,654.69,625,653.15ZM5.22,651.2l-1.54-.35c-.28,1.3-.56,2.6-.85,3.91l1.43.31Zm151.23,41.17.42-1.51a6.93,6.93,0,0,0-1.44,0c-.13,0-.32.68-.24.75A7.23,7.23,0,0,0,156.45,692.37Zm396.82,9.3-1.11-.27-.79,3,1.15.29Zm44.83,5.25-1.12-.53c-.39,1-.78,2-1.13,3a3.18,3.18,0,0,0,.71.28C597.1,708.75,597.6,707.84,598.1,706.92ZM298,687.52l-.78-1.33c-.23.21-.64.41-.68.65a9.47,9.47,0,0,0,.08,1.76Zm-157.12,5.24-.55-.71a14,14,0,0,0-1.22,1.22c0,.05.34.45.53.68C140.07,693.56,140.48,693.16,140.89,692.76ZM-63.3,307.91l-.09-.85a10.53,10.53,0,0,0-1.28,1c-.13.14,0,.55.06.83ZM-3.06,663.2A11.25,11.25,0,0,0-4,662c-.06,0-.71.28-.71.45a8,8,0,0,0,.2,1.61Zm548.31-17.36c-.38.48-.75,1-1.12,1.46l1.24.61c.23-.57.48-1.13.66-1.72A7,7,0,0,0,545.25,645.84ZM116.31,482.41l1.29-1.12a7.92,7.92,0,0,0-1.4-.75c-.16-.05-.71.47-.67.57A7.59,7.59,0,0,0,116.31,482.41Z" transform="translate(2101.76 137)"/><path class="cls-2" d="M573.88,529.36c5.61.38,11.23.75,16.84,1.14,19.77,1.37,33.8,12.22,42.12,29.06,4,8.14,3.4,18.57,4.89,28-14.6,1.16-36.09-5.55-45.67-13.45-8.16-6.73-12-15.45-13.46-25.76-.93-6.48-3-12.8-4.55-19.19Z" transform="translate(2101.76 137)"/><path class="cls-1" d="M458.08,622.25c-.41,2.81-.36,5.78-1.31,8.39-3.95,10.8-8,21.58-12.42,32.19-2.5,6-5.79,11.7-8.72,17.54l.14.18h-7.65c.65-2.42.89-4.93,2-7,4.92-9.44,10.15-18.71,15.13-28.12,3.11-5.87,6-11.87,8.94-17.84Z" transform="translate(2101.76 137)"/><path class="cls-1" d="M45,541c1.53.61,3.91.83,4.39,1.91.73,1.65.43,3.93.11,5.87-2.43,14.83-6.66,29-14.67,41.75,2-12.56,3.84-25.16,6.17-37.67.77-4.19,2.82-8.14,4.3-12.21Z" transform="translate(2101.76 137)"/><path class="cls-1" d="M321.37,650c.88.69,2.61,1.55,2.51,2-2.44,12.37-4.79,24.82-13.18,34.94-.34.41-1.18.41-2.85.94-.73-14.28,6.81-25.14,13-36.49A6.76,6.76,0,0,0,321.37,650Z" transform="translate(2101.76 137)"/><path class="cls-1" d="M422.92,636.08c.29,1.23,1.2,2.73.79,3.63-8.25,17.81-18.17,34.61-31.15,49.51,7.21-19.26,19.57-35.59,30.27-52.86Z" transform="translate(2101.76 137)"/><path class="cls-1" d="M68.56,650.74c.19,1.74,1.13,3.86.46,5.14-3.64,7-7.61,13.85-11.62,20.66-1.76,3-4.06,5.34-8.67,3.2.14-6.37,5.72-9.71,8.7-14.41s6.63-9,10-13.53A5.76,5.76,0,0,0,68.56,650.74Z" transform="translate(2101.76 137)"/><path class="cls-1" d="M228.1,643.9l3.33-1.93c.29,5.76-2.74,9.16-5.07,12.84l-2-.65Q226.2,649,228,643.94Z" transform="translate(2101.76 137)"/><path class="cls-2" d="M574.05,529.19c-4.38-4-9.63-7.46-10-15.74,7,4.1,7.88,10.34,9.83,15.91Z" transform="translate(2101.76 137)"/><path class="cls-1" d="M566.52,649.27c-3.76,6.37-4.82,6.57-8.48,1.61l-.16.26,7.23-4.1Z" transform="translate(2101.76 137)"/><path class="cls-2" d="M562.14,673.28c.36-4.31,1.77-8.09,4.9-11l1.83,1.09q-3.43,4.88-6.88,9.76Z" transform="translate(2101.76 137)"/><path class="cls-2" d="M113.42,611.09l-2,1.95c.26-2,.5-3.95.74-5.93l1.9.26C113.83,608.61,113.63,609.85,113.42,611.09Z" transform="translate(2101.76 137)"/><path class="cls-2" d="M524.08,595.19c.84-2.34,1.67-4.69,2.51-7,1.76,3.66.37,5.72-2.68,6.88Z" transform="translate(2101.76 137)"/><path class="cls-2" d="M680.2,615.4l2.31-7,1.72.89-4.2,5.94Z" transform="translate(2101.76 137)"/><path class="cls-2" d="M298.47,619.64q.22-4.07.46-8.13l1.85.26-2.46,7.69Z" transform="translate(2101.76 137)"/><path class="cls-2" d="M322.16,619.35c.76-2.29,1.51-4.58,2.27-6.87l1.83,1L322,619.18S322.16,619.35,322.16,619.35Z" transform="translate(2101.76 137)"/><path class="cls-2" d="M565.11,647l-7.23,4.1,6.23-7.8-.18-.18C564.33,644.45,564.72,645.74,565.11,647Z" transform="translate(2101.76 137)"/><path class="cls-2" d="M284.17,593.33c.7-2.31,1.41-4.61,2.11-6.92l2,1.07L284,593.17Z" transform="translate(2101.76 137)"/><path class="cls-2" d="M564.11,643.34l2.71-5.19,2.4,2.05-5.29,2.95Z" transform="translate(2101.76 137)"/><path class="cls-2" d="M402.11,631.27l2.61-5.41,1.41,1-4.19,4.24Z" transform="translate(2101.76 137)"/><path class="cls-2" d="M363.59,617.29s.09.35.08.36l3.42-3.66.88,1.44Z" transform="translate(2101.76 137)"/><path class="cls-2" d="M172.15,615.37l2.33-5.16,1.14.82L172,615.19Z" transform="translate(2101.76 137)"/><path class="cls-2" d="M42.13,605.39l2.27-5.12,1.12.77L42,605.2Z" transform="translate(2101.76 137)"/><path class="cls-2" d="M14.41,403.61c.3-2.09.61-4.18.91-6.27l1.41.39q-1.25,2.83-2.48,5.69Z" transform="translate(2101.76 137)"/><path class="cls-2" d="M542.12,589.34c.76-1.73,1.53-3.45,2.29-5.18l1.21.85-3.68,4.15Z" transform="translate(2101.76 137)"/><path class="cls-1" d="M632.55,663.67c-1.78-21.85,15.4-58.94,29.52-64.42,3.1,6.08,3.68,12.85-1.16,17.32-4.16,3.83-4.7,7.38-4.36,12.1.06.87-.69,1.81-1.36,3.43l-9.27-3.43C655.91,645.94,649.6,656.41,632.55,663.67Z" transform="translate(2101.76 137)"/><path class="cls-1" d="M195.19,661q5.43-35.72,10.87-71.42l2-.15c.58,1.56,1.49,3.08,1.67,4.69,1.45,13.23,2.73,26.48,4.13,39.71.68,6.43-1.28,11.5-6.22,16-3.83,3.48-6.71,8-10,12.09Z" transform="translate(2101.76 137)"/><path class="cls-1" d="M9.11,663.33c6.24-13.22,12.51-25.35,20.15-36.69l2.29.83c-1.94,9.24-3.61,18.55-6,27.69-.79,3-3.05,5.91-5.23,8.32C17.31,666.83,13.67,667.32,9.11,663.33Z" transform="translate(2101.76 137)"/><path class="cls-1" d="M196.05,692.7c-1.33-14.78,6.71-32.12,17.11-42,3.12,6.47,2.85,7.63-5.36,21.88C203.92,679.31,200,686,196.05,692.7Z" transform="translate(2101.76 137)"/><path class="cls-1" d="M180,655.45c-1.52,3.88-3.53,7.66-4.46,11.68-1.63,7.11-2.52,14.38-3.9,21.55-.51,2.62-1.41,5.27-6.44,4.3,1.19-5,2.35-10,3.93-16.68l-6.34,6.26-1.26-.76c.4-1.48.5-3.13,1.25-4.4,4-6.87,8.22-13.67,12.41-20.46,1.11-1.79,2.43-3.38,4.66-1.22Z" transform="translate(2101.76 137)"/><path class="cls-1" d="M654.29,681.83c-5.33-6.45-3.14-16,5.8-25.16C665.24,666.32,663.07,675.75,654.29,681.83Z" transform="translate(2101.76 137)"/><path class="cls-1" d="M151.57,648.3a22.28,22.28,0,0,1-3.65,15.18c-5.29,8.32-10.48,16.7-16.29,24.67-.2-7.83,11.12-29.16,20.12-39.63Z" transform="translate(2101.76 137)"/><path class="cls-1" d="M365,655.79l-10.6,9.72-1.47-1.06q10.59-19.17,21.16-38.34l2.33,1q-5.72,14.37-11.41,28.74Z" transform="translate(2101.76 137)"/><path class="cls-1" d="M179.89,655.72l7.21-19.51c1.6,9.71-4.25,38.27-10.23,48.14,1.21-11.06,2.2-20,3.18-28.92Z" transform="translate(2101.76 137)"/><path class="cls-1" d="M578,663.55c1.64-2.91,3.27-6.44,7.4-3.79,3.09,2,2.5,5.25.89,7.92A91.11,91.11,0,0,1,573.51,685q2.31-10.87,4.64-21.74Z" transform="translate(2101.76 137)"/><path class="cls-1" d="M256.18,666.84c-.7-1.19-2.28-2.75-2-3.52A192.45,192.45,0,0,1,274,627.13c-2.67,10.16-5.74,20.08-11.68,28.87-2.37,3.52-4.29,7.35-6.42,11Z" transform="translate(2101.76 137)"/><path class="cls-1" d="M523.3,648.07c.67-3.83,1.19-7.71,2.06-11.5.78-3.4,1.94-6.72,3.17-10.9,6,9.88,5.62,16.68-1.17,26.06l-4.13-3.83Z" transform="translate(2101.76 137)"/><path class="cls-1" d="M34.5,565.42c.86,9.22-1.94,17.34-6.57,25C29.41,581.84,26.23,572.18,34.5,565.42Z" transform="translate(2101.76 137)"/><path class="cls-1" d="M215.23,669.72c1.7,10.43-4.08,15.65-9.45,21.07C206.1,683.06,209.34,676.67,215.23,669.72Z" transform="translate(2101.76 137)"/><path class="cls-1" d="M400.3,664.92l-11.36,18.82C388.25,674.74,392.94,669,400.3,664.92Z" transform="translate(2101.76 137)"/><path class="cls-1" d="M523.23,647.9c1.79,9.44.41,18.25-6.27,28.27,1.44-11,3.17-19.66,6.37-28.07A1.22,1.22,0,0,1,523.23,647.9Z" transform="translate(2101.76 137)"/><path class="cls-1" d="M577,692.59l8.33-15.68C586.49,684.22,583.74,689.46,577,692.59Z" transform="translate(2101.76 137)"/><path class="cls-1" d="M99.3,488.52c-.5,3.35-.83,6.57-5.76,6.1-2.64-.26-5.38.62-9.47,1.17,4.31-6.76,10.35-5.85,15.41-7.13Z" transform="translate(2101.76 137)"/><path class="cls-1" d="M415.15,707.81l7.11-16.43,2.55,1.13q-3.82,7.88-7.64,15.74Z" transform="translate(2101.76 137)"/><path class="cls-1" d="M105.68,686.81l9.15-14.11c.8,7.23-2.55,11.89-7.31,15.69Z" transform="translate(2101.76 137)"/><path class="cls-1" d="M346.88,687.7l-9,12.78C339.55,691.33,340,690.68,346.88,687.7Z" transform="translate(2101.76 137)"/><path class="cls-1" d="M255.92,667c.67.66,2,1.46,1.89,1.94a48.65,48.65,0,0,1-7.29,16.16l-1.79-.83,7.44-17.45Z" transform="translate(2101.76 137)"/><path class="cls-1" d="M365,655.88c.58,7.68-2.23,14.29-7.67,20.08q3.82-10.07,7.65-20.15S365,655.88,365,655.88Z" transform="translate(2101.76 137)"/><path class="cls-1" d="M278.58,682.81l4.38-12,2,.72c0,4.5-1,8.68-4.15,12.06Z" transform="translate(2101.76 137)"/><path class="cls-1" d="M530.28,681l4.5-8.92c2.67,5.83.2,7.87-1.86,10.06Z" transform="translate(2101.76 137)"/><path class="cls-1" d="M6.45,641.1l4.94-14.4,2.49,1c-1.34,5-3.37,9.62-7.62,13.22Z" transform="translate(2101.76 137)"/><path class="cls-1" d="M122.47,683.59l-5,9.42C114.86,687.46,118.38,685.37,122.47,683.59Z" transform="translate(2101.76 137)"/><path class="cls-1" d="M661.32,685c-.49,1.7-1,3.4-1.53,5.06a5.79,5.79,0,0,1-1.63-.39c.1-1.78.34-3.54.56-5.31Z" transform="translate(2101.76 137)"/><path class="cls-1" d="M666.21,600.29l1.8-5.13,1.76.51L668.6,601Z" transform="translate(2101.76 137)"/><path class="cls-1" d="M146.07,676.88l3.18-6.41,1.28.54L148,677.64Z" transform="translate(2101.76 137)"/><path class="cls-1" d="M403.64,705l3.15-7.07,1.57.73c-1.1,2.33-2.2,4.67-3.29,7Z" transform="translate(2101.76 137)"/><path class="cls-1" d="M99.48,488.66c2.72-.82,5.1-3.88,9.08-1.38-3.18,3.43-6.36,1.24-9.25,1.25Z" transform="translate(2101.76 137)"/><path class="cls-1" d="M432.22,691.41q-1.5,5-3,10.05c-1.4-4.27.22-7.34,3.16-9.87Z" transform="translate(2101.76 137)"/><path class="cls-1" d="M625,653.15c-.68,1.54-1.37,3.09-2.06,4.63l-1.43-.63,2-4.64Z" transform="translate(2101.76 137)"/><path class="cls-1" d="M6.26,640.94l-5.2,6.76c-.43-4.09,2.29-5.49,5.38-6.6Z" transform="translate(2101.76 137)"/><path class="cls-1" d="M5.22,651.2l-1,3.87-1.43-.31c.29-1.31.57-2.61.85-3.91Z" transform="translate(2101.76 137)"/><path class="cls-1" d="M156.44,692.37a7.53,7.53,0,0,1-1.25-.75c-.08-.07.11-.72.24-.75a6.93,6.93,0,0,1,1.44,0C156.73,691.37,156.59,691.87,156.44,692.37Z" transform="translate(2101.76 137)"/><path class="cls-1" d="M553.27,701.67l-.75,3.06-1.15-.29.79-3Z" transform="translate(2101.76 137)"/><path class="cls-1" d="M598.1,706.92c-.5.92-1,1.83-1.54,2.72a3.18,3.18,0,0,1-.71-.28c.35-1,.74-2,1.13-3Z" transform="translate(2101.76 137)"/><path class="cls-1" d="M298,687.52l-1.38,1.08a9.47,9.47,0,0,1-.08-1.76c0-.24.45-.44.68-.65Z" transform="translate(2101.76 137)"/><path class="cls-1" d="M140.9,692.76,139.65,694c-.19-.23-.57-.63-.53-.68a14,14,0,0,1,1.22-1.22C140.52,692.29,140.71,692.52,140.9,692.76Z" transform="translate(2101.76 137)"/><path class="cls-1" d="M-63.3,307.91l-1.31,1c0-.28-.19-.69-.06-.83a10.53,10.53,0,0,1,1.28-1Z" transform="translate(2101.76 137)"/><path class="cls-1" d="M435.63,680.37q-1.71,5.5-3.42,11l.16.19q1.72-5.49,3.41-11Z" transform="translate(2101.76 137)"/><path class="cls-1" d="M-3.06,663.2l-1.46.85a8,8,0,0,1-.2-1.61c0-.17.65-.5.71-.45A11.25,11.25,0,0,1-3.06,663.2Z" transform="translate(2101.76 137)"/><path class="cls-1" d="M545.25,645.84a7,7,0,0,1,.78.35c-.18.59-.43,1.15-.66,1.72l-1.24-.61C544.5,646.81,544.87,646.32,545.25,645.84Z" transform="translate(2101.76 137)"/><path class="cls-1" d="M116.31,482.41a7.59,7.59,0,0,1-.78-1.3c0-.1.51-.62.67-.57a7.92,7.92,0,0,1,1.4.75Z" transform="translate(2101.76 137)"/></svg>