<?xml version="1.0" encoding="utf-8"?>
<!-- Generator: Adobe Illustrator 22.1.0, SVG Export Plug-In . SVG Version: 6.00 Build 0)  -->
<svg version="1.1" id="Layer_1" xmlns="http://www.w3.org/2000/svg" xmlns:xlink="http://www.w3.org/1999/xlink" x="0px" y="0px"
	 width="4999.8px" height="891.5px" viewBox="0 0 4999.8 891.5" style="enable-background:new 0 0 4999.8 891.5;"
	 xml:space="preserve">
<style type="text/css">
	.st0{fill:#603912;}
	.st1{fill:#019966;}
</style>
<title>main-bg</title>
<path class="st0" d="M2233.8,0h2766v890h-2012c0.5-7.5,2.1-15.1-1.8-23.2c-2.9,0.3-5.9,0.8-8.8,1.4c-4.8,1.4-9.4,3.3-14.3,4.6
	c-4.1,1.2-8.4,2-12.7,2.3c-5.5,0.4-10.7-2.7-13-7.7c-2.3-4.5,0.3-8.3,2.8-11.9c1.7-2.5,3.9-4.6,5.2-7.3c0.7-1.5,0.6-4.2-0.4-5.4
	s-3.6-1.8-5.3-1.5c-2.3,0.5-4.4,1.5-6.2,2.9c-2.8,1.8-5.3,4-8,5.9c-10.1,6.9-13.7,6-19.5-4.6c-1.9-3.4-3.9-8.1-7-9.3
	c-5.3-2-5.6-5.9-6.6-10c-1.2-4.7-2.7-9.3-4-14c-0.4-1.2-0.6-2.5-0.6-3.8c0.4-10,0.9-20,1.3-30c0.1-2.3,0-4.7,0-7
	c-3.8,10.2-5.7,20.8-9.1,30.8c-7.9,23.6-8.4,23.8-15.5,28.7c1.1-15.9,4.8-30.3,9.1-45l-6.8,7.6c0.8-7.7,3.4-13.7-3-18.8
	c1.1,15.3-3.7,27.6-15.6,37.1l-1.9-3.6c-4.6,3.4-6.6,9.7-14.2,10.7c0.4-14.7,5.5-27.7,9.2-40.9c3.7-13.5,9.4-26.5,14.2-39.8
	l-1.8-0.7c-5.6,12.7-11.7,25.3-16.8,38.2c-4.6,11.8-8.1,24-12.2,35.9c-1.3,3.8-2.3,8-8.2,9.7c7.1-33.6,11.2-66.6,24.2-97.6
	c-5.8,10.1-10.5,20.8-14.1,31.8c-5.3,16.8-9.6,34-14.5,50.9c-0.9,3.3-0.8,7.3-4.7,9c-0.9-0.6-2-1-2-1.3c2.4-18.9,4.9-37.8,7.5-56.7
	c-6,15.2-7.6,31.7-14.8,46.8c-1.8-2.7-3-5.8-3.7-9c-0.3-1.2,0.1-3.4-0.5-3.6c-7.2-3-7.2-10.7-10.8-16.1c-5.2-7.6-5.8-15.3-1.2-23.4
	l4.2-5.9l-1.7-0.9l-2.3,7c-0.9,0.5-1.7,1-2.5,1.6c-2.2,1.8-4.6,5.4-7.3,2.1c-1.5-1.7-1.4-5.7-0.6-8.2c1.7-5.4,4.4-10.4,6.4-15.7
	c0.9-2.5,1.2-5.2,1.9-8.3c-4.8,1.9-8.1,3.1-11.3,4.7c-4.1,2-9,3.5-12,6.7c-5.7,6-10.7,12.6-15.1,19.6c-6.6,10.3-12.4,21.2-18.7,31.8
	c-1.5,2.4-3.2,4.6-5,6.8l-1.8-0.8l2.1-11.6l-1.4-0.8l-11.9,12.8c-2.5-7.5,1.2-12.1,2.3-17c1-5.2,2.3-10.4,3.9-15.5
	c1.8-5.3,4.1-10.5,6.3-15.7c2-4.5,4.2-8.8,6.3-13.2c-14.4,16.2-19.7,36.7-26.9,55.5l-19.9,2.3c1,3.6,2.1,7.2,3.1,10.8l0.2-0.2
	c-2.3,5.8-4.6,11.7-7,17.5c-3.6,8.7-7.1,17.4-14.5,24.2c1.8-10.6,3.5-21.2,5.3-31.9c2.3-3.3,4.6-6.5,6.9-9.8l-1.9-1.1
	c-3.1,2.9-4.5,6.7-4.9,11l-6.9,4.7c4-10.2,7.7-19.5,11.3-28.8l-1.4-2.2c-0.4-1.3-0.8-2.6-1.2-3.9l5.3-3l-2.4-2l-2.7,5.2l-6.2,7.8
	l0.2-0.3c-3-0.5-3.8-2.3-3.1-5.1c2.3-9,4.2-18.2,11.7-23.5c-1.1-2-2.9-3.9-2.5-4.8c4.2-10.9,9.2-21.5,19.6-28.1
	c3.8-2.4,8.4-3.6,14.3-6.1c-12.9-0.4-21.4,4.7-27.2,13.3c-5.8,8.9-11,18.1-15.5,27.7c-3.5,7.6-9.1,14.1-16.1,18.7
	c-1.7-6.2-2.9-11.6-4.5-16.9c-2.8-8.6-1.8-18.1,2.8-25.9c1.9-3.4,3-7.3,4.4-11l3.7-4.2l-1.2-0.8c-0.8,1.7-1.5,3.5-2.3,5.2
	c-4.6,5.9-11.1,11.2-13.4,17.9c-6.9,19.8-12.2,40.1-18.1,60.2c-2.8,9.4-8.3,16.8-16,23.9c-4.5-10.3,0.8-18,3.6-25.9
	s6.1-15.8,9.2-23.9l-7.2,0.7c2.7-5.5,4.7-9.9,6.9-14.2c5.6-11,11.2-21.9,16.8-32.8c3.1-1.2,4.4-3.2,2.7-6.9c-0.8,2.3-1.7,4.7-2.5,7
	l-16.1,21.5c-0.2-3.1,0.1-6.2,0.9-9.2c0.5-2.5,1-5,1.5-7.5l-2.7-0.8c-5.6,36.7-27.2,65.1-46.7,94.7c0.1-3.2,0.9-6.4,2.4-9.2
	c5.6-11.4,11.3-22.6,16.8-34c1-2,1.2-4.5,1.8-6.7c-11.8,9.5-15.6,24.3-27.1,33.7c-2-12.5,1.3-25.3,9.1-35.2
	c7.7-10,16.3-19.2,24.5-28.8l-0.9-0.9l-17,13.5c4.7-13.4,13.7-25,25.5-32.9c13.2-9,27.2-16.7,40.8-25c3.3-2,6.6-4,9.9-6
	c-1.5-0.9-3.4-1-5-0.2c-11,5.5-22.1,10.8-33,16.6c-17.3,9.2-32.2,21.2-43.5,37.4c-1.8,2.5-4.9,4.1-7.4,6.1l-3.9,5.3
	c-3.6,4.7-7.6,9.2-10.8,14.2c-8.1,12.5-15.7,25.4-23.7,38c-1.7,2.8-2.5,7-8,6.7c1.2-6.4,1.1-13,3.8-18.1
	c5.4-10.2,12.5-19.5,18.8-29.2c1.4-2.1,2.7-4.3,5.1-8.2l-16.4,5.1l-0.1,0.3c-4.8,4.6-9.8,8.9-14.2,13.8c-3.6,4-6.5,8.3-13.1,6.4
	c-1.4-0.4-3.8,0.9-5.1,2.2c-1.8,1.8-3,4.2-4.4,6.4l-2.8-2.2c3.1-5.2,6.3-10.4,9.3-15.7s6.1-10.8,9.2-16.2l4.2-4.2l-1.4-1l-2.6,5.4
	c-4.8,5.4-9.6,10.8-14.3,16.3c-2.9,3.4-5.5,7-8.2,10.5c-1.7-3-2-5.3-1.4-7.3c1.6-5.4,3.7-10.7,5.5-16c7.9-23.2,21.8-41.8,42.6-55
	c12.4-7.8,25.3-14.8,38-22.1c2.9-1.7,5.7-3.6,8.5-5.3l-1.2-1.9c-13.9,7-27.9,13.9-41.7,21.2c-17.9,9.6-33.1,22.3-43.9,39.8
	c-1.2,1.9-2.8,4.8-4.5,5c-6.4,1-8.5,6.2-11.3,10.5c-8.4,12.8-16.4,25.9-24.6,38.8c-1.8,2.8-2.8,6.8-9,6.3c1.8-4,3.1-7.2,4.8-10.3
	c5.9-10.8,12.1-21.5,17.9-32.4c2-3.7,3-8,4.4-12l4.4-1.9l-0.9-1.4l-3.4,3.7l13.7-25.2c-7.1,6.6-13.6,13.8-19.4,21.5
	c-5.8,7.6-11.3,15.5-17,23.2l-1.2-0.5l6.6-25.4l-2.6-0.7c-5.1,14.6-10.2,29.2-15.3,43.8l-1.2-0.3c0.5-4.1,1-8.2,1.5-12.2l-1.4-0.6
	l-6,8.7c-0.1,0.5-0.3,1-0.5,1.4c-4.6-2-1.3-5-0.8-7.4c1-4.4,4.1-8.3,3-13.3c-4.9,8.8-8.6,18-12.6,27.1
	c-4.6,10.7-11.4,19.6-18.3,23.3c5.4-11.2,10.2-21.3,15.1-31.5s9.8-20.3,14.8-30.4l4.3-5.7l-1.8-1c-0.8,2.3-1.5,4.6-2.3,6.9
	c-2.8,3.6-5.9,7.1-8.4,10.9c-7.3,11.3-14.4,22.8-21.5,34.2c-0.5-4.6-0.1-9.2,1.2-13.7c3.2-10.2,5.3-20.6,4.9-31.4l2.5-7.7l-1.9-0.3
	c-0.2,2.7-0.3,5.4-0.5,8.1c-1.1,2-3,3.8-3.3,6c-3.3,18.4-14,33.6-21.2,50.3c-1.8,4.2-4.9,7.9-7.4,11.9l-1.8-1c1.3-4,2.5-8,3.9-12.2
	l-5.9-1.5c11.9-30.8,18.4-63.3,39.2-90.1l-1.7-1l-18.9,21.8c1.3-5.1,1.9-7.9,2.6-10.7l4.2-5.7l-2-1.1c-0.7,2.3-1.4,4.6-2.1,6.9
	c-2.7,3.3-5.9,6.3-8,9.9c-13.3,21.8-26.3,43.8-39.5,65.7c-2.3,3.8-4.9,7.5-7.4,11.2l-2.2-1.1c4-10.7,7.3-21.6,12.2-31.8
	c3.9-8.2,4.9-16.5,6.4-24.9l-2-1.1l-15.6,22.7h-0.1c-5.1,2.7-5.3-0.8-5.9-4.4c-3.3-19.3-6.5-38.7-10.2-58
	c-1.4-6.8-1.2-13.9,0.6-20.7c2.4-8.8,4.5-17.8,6.7-26.7l-1.3-0.4c-2.9,7.5-5.9,15-8.8,22.7l-3.6-2.2c-0.5,7.1-0.2,14.5-1.6,21.4
	c-2.7,13-6.4,25.8-9.9,38.7c-0.8,3.6-2.1,7-3.9,10.2c-6.4,10.9-13.1,21.6-19.8,32.3c-1.2,1.6-2.6,3.2-4.1,4.6l-1.2-0.8l5.4-16.7
	l-1.3-0.4l-8.9,15.8l-2.5-1.2L2270,770c-4.2,3.5-6.9,7.7-9.4,11.9c-1.7,2.8-3.7,4.8-7.3,3.3l0.2,0.2c2.4-4.3,4.6-8.6,7.1-12.8
	c4.3-6.9,8.8-13.7,13.1-20.5l3.6-4.2l-1.1-0.8l-2.3,5.2c-0.9,0.4-2.1,0.6-2.6,1.3c-10.3,14-23.9,25.3-33.4,40.1
	c-3,4.4-6.4,8.5-10,12.3c-1.1,1.2-3,1.7-6.7,3.6c4.3-18.7,18.6-28.5,25.6-42.8c-6.6,5.9-12.9,12.2-18.6,18.9
	c-6,6.8-11.7,13.8-17.6,20.8c-0.6-0.4-1.2-0.7-1.8-1.1c5.6-17.3,12.9-34.2,15.7-52.4c-10.9,23.5-16.5,48.9-31,70.9
	c1.7-6.7,3.5-13.5,5.2-20.2c-8.1,5.6-9.3,15.7-17.5,20.9c4.8-11.9,12.2-22.3,18-33.6c6.1-11.8,11.9-23.8,17.5-35.8
	c5.3-11.3,14.6-20.6,17.4-35.5l-18.9,28.3c0.2-1.2,0.4-2.5,0.6-3.7l-1.9-0.3l-0.7,5.9c-7,6.6-15.2,11.9-20.6,20.3
	c-3.4,5.3-7.8,9.9-11.8,14.8l-1.4-1c0.4-2.6,0.8-5.3,1.5-10.2l-10.5,13.7c-0.3,0.4-0.7,0.7-1.1,1c-7.1,7-14.1,14-21.3,20.8
	c-1.3,1.2-3.4,1.5-5.1,2.2c-0.7-2-1.3-4-1.8-6c-0.2-0.9,0.5-1.9,0.7-2.9c1.9-7.1,5.3-13.7,10.1-19.2c5.8-7,11.1-14.5,16.6-21.7
	l-1.8-1.4l-34.1,37.9c-1.7-8.4,4.3-13,5.3-18.8c-1.3-0.8-3.2-1.6-3.2-2.2c0.6-12.3,2.8-24.3,9-35.3l3.6-4.2l-1.1-0.8l-2.3,5.1
	l-2.6-1.9l-24.8,39.7l-2-1c4.7-12.2,6.7-25.3,15.6-35.9c12.1-14.4,20-31.8,22.9-50.3c1.8-11,4-22.2,0.4-33.6l-6.6,18.7l0.3-0.4
	c-7.3,3.4-4.7-5.5-8.9-6.9c0.3,9.9,3.3,20.7-8.3,28.5c-3.8-26.5-20.9-45.1-33.6-66c-16.3-26.8-31.6-54-44.2-82.8
	c-3.9-8.8-3.4-15.8,3.3-22.6c4-4.1,7.6-8.5,11.4-12.7l-1.4-1.4l-19.5,16.2c-4.7-6-3.2-10.8-0.3-15.7c8.7-15.4,19.8-29.4,32.7-41.4
	c17.2-15.8,36.7-27.6,59.6-33.2c21.2-5.2,41-2.2,59.2,10c2.3,1.5,4.9,2.7,9.5,5.3c-1.9-6.2-3-10-4.8-15.8c6,3.4,10.6,5.4,14.5,8.2
	c29.6,21.4,45.8,49.9,43.7,87c-2,36.5-19.5,64-51.5,81.4c-22.3,12.1-45.2,11.2-66.3-3c-20.4-13.7-29.8-33.5-28-58.3
	c0.3-4.6,1.3-9.2,2-13.8c0.8-1.9,1.6-3.8,2.5-5.7l-1.4-0.4c-0.3,2.1-0.6,4.2-0.9,6.3c-1.6,4.3-4,8.5-4.5,12.9
	c-4.5,38.4,22.2,71,60.8,74.7c2.7,0.3,5.4,0.9,8.6,1.5c-3,8.5-8.1,16,1.4,22.4l6.8-3.7l11.4,6.3l6.3-12.1c2.2,0.8,4.1,1.4,6,2
	c8,2.4,9.4,1.4,10.5-6.6c0.2-1.9,0.5-3.8,0.8-5.5c10.4-2.5,11.5-5.2,5.8-13.4c-1.4-2.1-2.9-4.1-4.3-6.1
	c45.4-43,54.1-91.1,23.1-145.6c3.6,3.8,6.9,7.9,9.9,12.2c2.8,4.1,5.3,8.5,7.6,12.9c2.4,4.7,4.5,9.6,6.5,14.6c1.9,4.6,3.4,9.3,5,13.9
	l2.2-0.8c-2.9-9.5-5-19.4-9-28.4c-3.9-9.2-8.9-17.9-15-25.8c-6.4-8.1-13.8-15.3-22-21.6c-7.6-6-16.6-10.3-25.1-15.4
	c3.4-3.1,6.1-5.6,10.3-9.5c-4.6-0.6-6.8-1.3-8.9-1.2c-14.7,0.5-29.3,0.9-43.9,1.8c-17.7,1.1-35,5.7-50.8,13.6
	c-30,15.1-53.6,37-70,66.4c-1.5,2.6-2.1,6.3-6.3,7.2c-0.3-1.4-0.9-2.5-0.7-3.3c0.9-3.5,2-7,3.3-10.5c23.3-58.7,62.7-102.3,121-127.9
	c2.1-0.9,4.1-2.2,6.1-3.4c-19.3,4.6-36.5,13.1-52.5,24.2c-33.7,23.4-58.4,54.2-75,91.6c-1.4,3.1-1.7,7-6,9
	c-2.8-5.8-1.1-10.9,0.4-15.9c6.3-20.8,15.2-40.7,26.7-59.2c3.9-6.2,8.6-11.8,14-16.7c22.7-20.3,47.8-37.3,74.3-52.2
	c26.4-14.6,48.2-36.4,62.7-62.8c2.6-4.6,6-8.7,10-12.1c18.6-15.8,36.1-32.6,51.9-51.2c19.4-23,37.5-46.9,48.6-75.2
	c1.1-2.7,3.1-5.4,1.5-9.8c-2.5,3.4-4.3,5.8-6,8.1c-20,27.5-39.7,55.2-60.1,82.3c-8.8,11.7-19,22.3-28.7,33.3c-1.7,2-4.2,3.3-7.4,5.7
	c2.3-9,5.1-15.9,5.8-23.1c3.4-35,4.6-69.9-8.2-103.6c-3-7.9-3-14.8,2.6-21.4c0.5-0.6,0.6-1.7,1.2-3.6l-6.9,5.2
	c8.7-26,30.2-37.6,53-47.8c-22.5,1.3-38.4,13.5-51.3,30.9c5-18,16.8-30.8,28.8-43.7c-15.4,9.3-24.9,23.5-33.1,39.2
	c0.9-5.2,2.4-10.3,4.4-15.2c2-4.9,4.4-9.7,7.1-14.3c2.7-4.6,5.7-9,8.9-13.2c2.9-4,6.1-7.7,9.2-11.6c-19.3,14.4-28.6,35-36.3,57.2
	c-4.2-7.8-7.1-15.5-10.4-23c-2.6-5.9-1.3-10.3,2.3-15.6c10.1-14.9,19.5-30.2,28.8-45.5C2231.5,8.5,2232.3,4,2233.8,0z M2675.6,666.3
	c-2-5.6-2.8-11.8-9.8-15.9c0.4,8.3,5.6,11.7,10,15.7c1.5,6.4,3.6,12.7,4.5,19.2c1.5,10.3,5.3,19,13.5,25.8
	c9.6,7.9,31.1,14.6,45.7,13.5c-1.5-9.5-0.9-19.9-4.9-28c-8.3-16.8-22.4-27.7-42.1-29.1L2675.6,666.3z"/>
<path class="st1" d="M2663.8,810.1c-1.8,10.6-3.5,21.2-5.3,31.9c7.4-6.8,10.9-15.5,14.5-24.2c2.4-5.8,4.6-11.7,6.9-17.5
	c-1.5,7.2-3.1,14.5-4.6,21.7c4.9-5.3,9.2-11.1,12.8-17.3c1.6-2.7,2.2-6-0.9-7.9c-4.1-2.7-5.8,0.9-7.4,3.8c-1-3.6-2.1-7.2-3.1-10.8
	l19.9-2.3c7.2-18.8,12.5-39.3,26.9-55.5c-2.1,4.4-4.4,8.7-6.3,13.2c-2.3,5.2-4.6,10.3-6.3,15.7c-1.6,5.1-2.9,10.2-3.9,15.5
	c-1.1,5-4.8,9.5-2.3,17l11.9-12.8l1.4,0.8l-2.1,11.6l1.8,0.8c1.8-2.2,3.5-4.4,5-6.8c6.3-10.6,12.1-21.4,18.7-31.8
	c4.4-7,9.5-13.6,15.1-19.6c3-3.2,7.9-4.7,12-6.7c3.2-1.6,6.6-2.7,11.3-4.7c-0.7,3.2-1,5.9-1.9,8.3c-2,5.3-4.7,10.3-6.4,15.7
	c-0.8,2.5-0.8,6.5,0.6,8.2c2.8,3.2,5.1-0.3,7.3-2.1c0.8-0.6,1.6-1.1,2.5-1.6l-0.2-0.2c-4.5,8.1-3.9,15.8,1.2,23.4
	c3.6,5.3,3.6,13.1,10.9,16.1c0.6,0.2,0.2,2.4,0.5,3.6c0.6,3.2,1.9,6.3,3.7,9c7.2-15.2,8.8-31.6,14.8-46.8c-2.5,18.9-5,37.8-7.4,56.7
	c0,0.3,1,0.7,2,1.3c3.9-1.6,3.8-5.7,4.7-9c4.8-17,9.1-34.1,14.5-50.9c3.7-11,8.4-21.7,14.1-31.8c-13,31-17,64-24.2,97.6
	c5.9-1.6,6.9-5.9,8.2-9.7c4.1-12,7.6-24.2,12.2-35.9c5.1-12.9,11.1-25.5,16.8-38.2l1.8,0.7c-4.8,13.2-10.5,26.2-14.2,39.8
	c-3.6,13.1-8.7,26.2-9.2,40.9c7.6-1,9.5-7.3,14.2-10.7l1.9,3.6c11.9-9.5,16.7-21.8,15.6-37.1c6.4,5.1,3.8,11.1,3,18.8l6.9-7.6
	c-4.3,14.6-8,29.1-9.1,45c7.1-5,7.6-5.2,15.5-28.7c3.4-10,5.2-20.5,9.1-30.8c0,2.3,0.1,4.7,0,7c-0.4,10-0.9,20-1.3,30
	c0,1.3,0.2,2.6,0.6,3.8c1.3,4.7,2.8,9.3,4,14c1,4.1,1.3,8,6.6,10c3.1,1.2,5,5.9,7,9.3c5.8,10.5,9.4,11.5,19.5,4.6
	c2.7-1.9,5.2-4.1,8-5.9c1.9-1.4,4-2.4,6.2-2.9c1.7-0.3,4.3,0.3,5.3,1.5s1.1,3.9,0.4,5.4c-1.2,2.7-3.4,4.8-5.2,7.3
	c-2.5,3.6-5.1,7.4-2.8,11.9c2.3,5,7.5,8.1,13,7.7c4.3-0.3,8.6-1.1,12.7-2.3c4.8-1.3,9.5-3.2,14.3-4.6c2.9-0.6,5.8-1.1,8.8-1.4
	c15.3,14.5,43.9,24.6,60.6,24.6C2050.8,891.5,996.1,890,0,890V0h2233.8c-1.4,4-2.2,8.5-4.4,12.1c-9.3,15.3-18.8,30.7-28.8,45.5
	c-3.6,5.3-4.9,9.8-2.3,15.6c3.3,7.5,6.2,15.2,10.4,23c7.7-22.1,17-42.7,36.3-57.2c-3.1,3.8-6.3,7.6-9.2,11.6
	c-3.2,4.3-6.2,8.7-8.9,13.2c-2.7,4.6-5,9.4-7.1,14.4c-2,4.9-3.5,10-4.4,15.2c8.2-15.6,17.7-29.9,33.1-39.2
	c-12,12.9-23.9,25.8-28.8,43.7c12.9-17.4,28.8-29.6,51.3-30.9c-22.8,10.3-44.3,21.8-53,47.8l6.9-5.2c-0.6,1.9-0.6,2.9-1.2,3.6
	c-5.6,6.6-5.6,13.4-2.6,21.4c12.8,33.7,11.7,68.6,8.2,103.6c-0.7,7.2-3.5,14.2-5.8,23.1c3.2-2.4,5.6-3.7,7.4-5.7
	c9.7-11,19.9-21.6,28.7-33.3c20.4-27.1,40.1-54.8,60.1-82.3c1.7-2.4,3.5-4.8,6-8.1c1.7,4.5-0.4,7.1-1.5,9.8
	c-11.1,28.4-29.2,52.2-48.6,75.2c-15.7,18.6-33.3,35.4-51.9,51.2c-4,3.4-7.4,7.5-10,12.1c-14.6,26.4-36.3,48.2-62.7,62.8
	c-26.5,14.9-51.7,31.9-74.3,52.2c-5.4,4.9-10.1,10.5-14,16.7c-11.4,18.4-20.3,38.3-26.6,59.1c-1.5,5-3.2,10.1-0.4,15.9
	c4.2-2,4.6-5.9,6-9c16.6-37.4,41.3-68.3,75-91.6c16-11.1,33.2-19.6,52.5-24.2c-2,1.1-4,2.4-6.1,3.4c-58.3,25.6-97.7,69.2-121,127.9
	c-1.3,3.4-2.4,7-3.4,10.5c-0.2,0.8,0.3,1.8,0.7,3.3c4.2-0.9,4.8-4.5,6.3-7.2c16.4-29.4,39.9-51.3,70-66.4
	c15.8-7.9,33.1-12.6,50.8-13.7c14.6-1,29.3-1.3,43.9-1.8c2.2-0.1,4.3,0.6,8.9,1.2c-4.2,3.9-7,6.4-10.3,9.5
	c8.5,5.1,17.5,9.4,25.1,15.4c8.2,6.3,15.6,13.6,22,21.6c6.1,7.9,11.1,16.6,15,25.8c4,9,6.1,18.9,9,28.4l-2.3,0.9
	c-1.7-4.6-3.2-9.4-5-13.9c-2-4.9-4.1-9.8-6.5-14.6c-2.3-4.4-4.8-8.8-7.6-12.9c-3-4.3-6.3-8.4-9.9-12.2
	c31,54.5,22.3,102.5-23.1,145.6c1.4,2,2.9,4.1,4.3,6.1c5.7,8.2,4.6,11-5.8,13.4c-0.2,1.7-0.5,3.6-0.8,5.5c-1,8-2.5,9-10.5,6.6
	c-1.9-0.5-3.7-1.2-6-2l-6.3,12.1l-11.4-6.2l-6.8,3.7c-9.5-6.4-4.4-13.9-1.4-22.4c-3.2-0.6-5.8-1.2-8.6-1.5
	c-38.6-3.7-65.4-36.3-60.8-74.8c0.5-4.4,3-8.6,4.5-12.9l-0.1-0.2c-0.7,4.6-1.7,9.2-2,13.8c-1.8,24.7,7.6,44.5,28,58.3
	c21.2,14.3,44,15.1,66.3,3c32.1-17.4,49.5-44.9,51.5-81.4c2.1-37.1-14.1-65.6-43.7-87c-4-2.9-8.5-4.9-14.5-8.2
	c1.7,5.7,2.9,9.6,4.8,15.8c-4.6-2.5-7.2-3.7-9.5-5.3c-18.3-12.2-38-15.2-59.2-10c-23,5.6-42.4,17.4-59.6,33.2
	c-12.9,12.1-23.9,26.1-32.7,41.5c-2.9,4.9-4.3,9.7,0.3,15.7l19.5-16.2l1.4,1.4c-3.8,4.2-7.4,8.6-11.4,12.7
	c-6.7,6.8-7.2,13.8-3.3,22.6c12.7,28.8,27.9,56,44.2,82.8c12.8,20.9,29.8,39.5,33.6,66c11.6-7.9,8.6-18.6,8.3-28.5
	c4.2,1.4,1.6,10.3,8.9,6.9c-1.5,4.1-3.5,8-4.3,12.2c-2.3,12.5-4.1,25.1-6.2,37.7c8-12.7,12.2-26.9,14.7-41.8
	c0.3-1.9,0.6-4.2-0.1-5.9c-0.5-1.1-2.9-1.3-4.4-1.9l6.7-18.7c3.6,11.4,1.3,22.6-0.4,33.6c-2.9,18.6-10.8,36-22.9,50.3
	c-8.9,10.7-10.9,23.8-15.6,36l2,1l24.8-39.7l2.6,1.9l-0.2-0.2c-6.2,10.9-8.4,22.9-9,35.3c0,0.6,1.9,1.4,3.2,2.2
	c-1,5.8-7,10.4-5.3,18.8l34.1-37.9l1.8,1.4c-5.5,7.2-10.8,14.7-16.6,21.7c-4.8,5.6-8.2,12.2-10.1,19.2c-0.2,1-0.9,2-0.7,2.9
	c0.5,2,1.1,4,1.8,6c1.7-0.7,3.8-1,5.1-2.2c7.2-6.8,14.2-13.9,21.3-20.8c-3.4,4.5-7,8.8-10,13.5s-8.6,8-8.7,14.4
	c4.6,2.1,6.9-0.2,8.7-3.2c4-6.8,8-13.7,11.6-20.7c0.7-1.3-0.3-3.4-0.5-5.1l10.6-13.6c-0.7,4.9-1.1,7.5-1.5,10.2l1.4,1
	c4-4.9,8.4-9.5,11.8-14.8c5.4-8.4,13.6-13.7,20.6-20.3l2-2l18.9-28.3c-2.8,14.9-12.1,24.2-17.4,35.5c-5.6,12-11.5,24-17.5,35.8
	c-5.8,11.3-13.2,21.7-18,33.6c8.2-5.2,9.4-15.3,17.5-20.9c-1.7,6.7-3.5,13.4-5.2,20.2c14.5-22,20.2-47.5,31-70.9
	c-2.8,18.1-10.1,35-15.7,52.4c0.6,0.4,1.2,0.7,1.8,1.1c5.9-6.9,11.6-14,17.6-20.8c5.8-6.7,12-13,18.7-18.9
	c-7,14.3-21.2,24.2-25.6,42.8c3.7-2,5.6-2.4,6.7-3.6c3.6-3.8,7-8,10-12.3c9.5-14.7,23-26,33.4-40.1c0.5-0.7,1.7-0.9,2.6-1.3
	l-0.2-0.2c-4.4,6.8-8.9,13.6-13.1,20.5c-2.6,4.1-4.8,8.5-7.1,12.8c-9,10.5-20.3,31.8-20.1,39.6c5.8-8,11-16.3,16.3-24.7
	c3-4.5,4.3-9.8,3.7-15.2c3.6,1.5,5.6-0.6,7.3-3.3c2.6-4.2,5.2-8.4,9.4-11.9l-10.6,25.1l2.5,1.2l8.9-15.8l1.3,0.4l-5.4,16.7l1.2,0.8
	c1.5-1.4,2.9-2.9,4.1-4.6c6.7-10.7,13.4-21.4,19.8-32.3c1.7-3.2,3-6.6,3.9-10.2c3.5-12.8,7.2-25.7,9.9-38.7c1.5-7,1.1-14.3,1.6-21.4
	l3.6,2.2c3-7.7,5.9-15.2,8.8-22.7l1.3,0.4c-2.2,8.9-4.3,17.8-6.7,26.7c-1.8,6.7-2,13.8-0.6,20.7c3.7,19.2,6.9,38.6,10.2,58
	c0.6,3.7,0.8,7.1,5.9,4.4c-1.2,3.4-2.4,6.8-3.6,10.2l2,0.7c2.3-3.7,5.4-7.1,5.1-12.8l-3.3,1.9l15.5-22.7l2,1.1
	c-1.5,8.4-2.5,16.8-6.4,24.9c-4.9,10.2-8.2,21.2-12.2,31.8l2.2,1.1c2.5-3.7,5.1-7.4,7.4-11.2c13.2-21.9,26.2-43.9,39.5-65.7
	c2.2-3.6,5.3-6.6,8-9.9l-0.2-0.2c-0.7,2.8-1.3,5.5-2.6,10.7L2402,719l1.7,1c-20.8,26.8-27.3,59.4-39.2,90.1l5.9,1.5
	c-1.3,4.2-2.6,8.2-3.9,12.2l1.8,1c2.5-3.9,5.5-7.7,7.4-11.9c7.2-16.7,17.9-31.9,21.2-50.3c0.4-2.1,2.2-4,3.3-6l-0.1-0.2
	c0.4,10.8-1.7,21.1-4.9,31.4c-1.3,4.4-1.7,9.1-1.2,13.7c7.1-11.4,14.2-22.9,21.5-34.2c2.5-3.8,5.6-7.3,8.4-10.9l-0.2-0.2
	c-4.9,10.1-9.8,20.2-14.8,30.4c-4.9,10.1-9.7,20.3-15.1,31.5c6.9-3.7,13.7-12.6,18.4-23.3c4-9.1,7.7-18.2,12.6-27.1
	c1.2,5-2,8.9-3,13.3c-0.6,2.5-3.9,5.4,0.7,7.5c-6.2,11.3-13.7,22.2-13,36.5c1.7-0.5,2.5-0.5,2.8-0.9c8.4-10.1,10.7-22.6,13.2-34.9
	c0.1-0.5-1.6-1.3-2.5-2l6-8.7l1.4,0.6c-0.5,4.1-1,8.1-1.5,12.2l1.2,0.3c5.1-14.6,10.2-29.2,15.3-43.8l2.6,0.7l-6.6,25.4l1.2,0.5
	c5.6-7.7,11.1-15.6,17-23.2c5.8-7.7,12.2-14.9,19.3-21.5l-13.7,25.2l-0.1-0.4c-1.4,4-2.4,8.3-4.4,12c-5.8,10.9-12,21.5-17.9,32.4
	c-1.7,3.1-2.9,6.4-4.8,10.3c6.2,0.5,7.2-3.5,9-6.3c8.3-12.9,16.3-26,24.6-38.8c2.8-4.3,4.9-9.5,11.3-10.5c1.7-0.3,3.3-3.1,4.5-5
	c10.8-17.5,26-30.2,43.9-39.8c13.8-7.3,27.8-14.2,41.7-21.2l1.2,1.9c-2.8,1.8-5.6,3.7-8.5,5.3c-12.6,7.4-25.6,14.3-38,22.1
	c-20.7,13.1-34.7,31.8-42.6,55c-1.8,5.4-3.9,10.6-5.5,16c-0.6,2-0.3,4.3,1.4,7.3c2.7-3.5,5.4-7.1,8.2-10.5
	c4.7-5.5,9.5-10.9,14.3-16.3l-0.2-0.2c-3.1,5.4-6.1,10.9-9.2,16.2c-3.1,5.4-6.2,10.4-9.3,15.7l2.7,2.1c1.4-2.2,2.6-4.6,4.4-6.4
	c1.2-1.2,3.7-2.6,5.1-2.2c6.6,1.9,9.5-2.4,13.1-6.4c4.4-4.9,9.4-9.2,14.2-13.8c-10.7,17.3-23.1,33.6-30.3,52.9
	c13-14.9,22.9-31.7,31.1-49.5c0.4-0.9-0.5-2.4-0.8-3.6l16.5-5.1c-2.4,3.8-3.7,6.1-5.1,8.2c-6.4,9.7-13.4,19-18.8,29.2
	c-2.7,5.1-2.6,11.7-3.8,18.1c5.5,0.3,6.3-3.9,8-6.7c8-12.6,15.6-25.4,23.7-38c3.2-5,7.2-9.5,10.8-14.2c-3,6-5.8,12-8.9,17.8
	c-5,9.4-10.2,18.7-15.1,28.1c-1.1,2.1-1.3,4.6-2,7h7.7c-1.1,3.7-2.3,7.4-3.4,11c-3,2.5-4.6,5.6-3.2,9.9c1-3.3,2-6.7,3-10.1
	c1.1-3.7,2.3-7.4,3.4-11c2.9-5.8,6.2-11.5,8.7-17.5c4.4-10.6,8.5-21.4,12.4-32.2c1-2.6,0.9-5.6,1.3-8.4c2.5-2,5.7-3.6,7.4-6.1
	c11.3-16.3,26.2-28.3,43.5-37.4c10.9-5.8,22-11.1,33-16.6c1.6-0.8,3.5-0.7,5,0.2c-3.3,2-6.6,4-9.9,6c-13.6,8.3-27.7,16-40.8,25
	c-11.9,7.9-20.8,19.4-25.5,32.9l17-13.5l0.9,0.9c-8.2,9.6-16.8,18.8-24.5,28.8c-7.8,10-11.1,22.7-9,35.2
	c11.5-9.3,15.3-24.1,27.1-33.7c-0.6,2.2-0.8,4.6-1.8,6.7c-5.5,11.4-11.2,22.7-16.8,34c-1.5,2.8-2.3,6-2.4,9.2
	c19.5-29.6,41.1-58,46.7-94.7l2.7,0.8c-0.5,2.5-1,5-1.5,7.5c-0.8,3-1.2,6.1-0.9,9.2l16.1-21.5l-0.2-0.2
	c-5.6,10.9-11.2,21.8-16.8,32.8c-2.2,4.3-4.3,8.8-6.9,14.2l7.2-0.7c-3.1,8.1-6.4,15.9-9.2,23.9s-8.1,15.5-3.6,25.9
	c7.7-7.1,13.3-14.4,16-23.9c5.9-20.1,11.2-40.4,18.1-60.2c2.3-6.7,8.8-12,13.4-17.9l-0.2-0.2c-1.4,3.7-2.5,7.6-4.4,11
	c-4.6,7.8-5.6,17.3-2.8,25.9c1.6,5.3,2.8,10.7,4.5,16.9c7-4.6,12.6-11.1,16.1-18.6c4.5-9.6,9.7-18.9,15.5-27.7
	c5.8-8.6,14.3-13.7,27.2-13.3c-5.9,2.5-10.5,3.7-14.3,6.1c-10.3,6.5-15.3,17.2-19.6,28.1c-0.4,1,1.4,2.8,2.5,4.8
	c-7.5,5.3-9.4,14.5-11.7,23.5c-0.7,2.8,0.1,4.6,3.1,5.1c3.7,5,4.7,4.8,8.5-1.6c-3.6,9.3-7.3,18.6-11.3,28.8l6.9-4.8L2663.8,810.1z
	 M2108,777.9c4.2-3.6,6.3-8.2,7.6-13.2l-2.5-1c-1.7,4.8-3.3,9.6-5,14.4c-3.1,1.1-5.8,2.5-5.4,6.6L2108,777.9z M2201.2,625.7
	c-5.1,1.3-11.1,0.4-15.4,7.1c4.1-0.6,6.8-1.4,9.5-1.2c4.9,0.5,5.3-2.8,5.8-6.1c2.9,0,6,2.2,9.2-1.3
	C2206.3,621.8,2204,624.8,2201.2,625.7z M2625,784.9l4.1,3.8c6.8-9.4,7.2-16.2,1.2-26.1c-1.2,4.2-2.4,7.5-3.2,10.9
	c-0.9,3.8-1.4,7.7-2,11.6c-3.2,8.4-5,17.1-6.4,28C2625.4,803.2,2626.8,794.3,2625,784.9z M2357.9,803.9l-7.4,17.5l1.8,0.8
	c3.4-4.9,5.9-10.4,7.3-16.2c0.1-0.5-1.2-1.3-1.9-1.9c2.1-3.7,4.1-7.5,6.4-11c5.9-8.8,9-18.7,11.7-28.9
	c-7.9,11.3-14.5,23.5-19.8,36.2C2355.7,801.1,2357.2,802.7,2357.9,803.9L2357.9,803.9z M2466.7,792.9l-7.6,20.1
	C2464.5,807.2,2467.3,800.6,2466.7,792.9c3.8-9.6,7.6-19.1,11.4-28.7l-2.3-1c-7,12.8-14.1,25.6-21.2,38.3l1.5,1.1
	C2459.6,799.3,2463.2,796,2466.7,792.9L2466.7,792.9z M2281.8,792.5c-1,8.9-2,17.9-3.2,28.9c6-9.9,11.8-38.4,10.2-48.1l-7.2,19.5
	c-2.2-2.2-3.5-0.6-4.7,1.2c-4.2,6.8-8.4,13.6-12.4,20.5c-0.8,1.3-0.9,2.9-1.2,4.4l1.3,0.8l6.3-6.3c-1.6,6.6-2.7,11.6-3.9,16.6
	c5,1,5.9-1.7,6.4-4.3c1.4-7.2,2.3-14.4,3.9-21.5C2278.3,800.1,2280.3,796.3,2281.8,792.5L2281.8,792.5z M2734.3,800.8
	c17-7.3,23.4-17.7,13.4-35l9.3,3.4c0.7-1.6,1.4-2.6,1.4-3.4c-0.3-4.7,0.2-8.3,4.4-12.1c4.8-4.5,4.3-11.2,1.2-17.3
	C2749.8,741.7,2732.5,778.8,2734.3,800.8L2734.3,800.8z M2296.9,798l2.4,0.9c3.3-4.1,6.2-8.6,10-12.1c4.9-4.5,6.9-9.5,6.2-16
	c-1.4-13.2-2.7-26.5-4.1-39.7c-0.2-1.6-1.1-3.1-1.7-4.7l-2,0.2C2304.2,750.4,2300.6,774.2,2296.9,798z M2110.9,800.3
	c4.6,4,8.2,3.5,11.2,0.2c2.2-2.4,4.4-5.3,5.2-8.3c2.4-9.1,4-18.5,6-27.7l-2.3-0.8C2123.4,775,2117.1,787.1,2110.9,800.3z
	 M2297.8,829.7c3.9-6.7,7.9-13.4,11.8-20.1c8.2-14.2,8.5-15.4,5.4-21.9C2304.5,797.6,2296.5,814.9,2297.8,829.7z M2756.1,818.8
	c8.8-6.1,11-15.5,5.8-25.2C2752.9,802.9,2750.8,812.4,2756.1,818.8z M2136.3,702.4c-8.3,6.8-5.1,16.4-6.6,25
	C2134.3,719.8,2137.1,711.6,2136.3,702.4z M2317,806.7c-5.9,7-9.1,13.3-9.4,21.1C2312.9,822.4,2318.7,817.2,2317,806.7z
	 M2502.1,801.9c-7.4,4.1-12.1,9.8-11.4,18.8L2502.1,801.9z M2678.8,829.6c6.7-3.1,9.4-8.4,8.3-15.7L2678.8,829.6z M2516.9,844.8
	l2,0.4c2.5-5.2,5.1-10.5,7.6-15.7l-2.6-1.1L2516.9,844.8z M2207.4,823.8l1.8,1.6c4.8-3.8,8.1-8.5,7.3-15.7L2207.4,823.8z
	 M2448.6,824.7c-6.9,3-7.3,3.6-9,12.8L2448.6,824.7z M2380.3,819.8l2.2,0.8c3.2-3.4,4.1-7.6,4.1-12.1l-2-0.7L2380.3,819.8z
	 M2632,818l2.6,1.1c2.1-2.2,4.5-4.2,1.9-10.1L2632,818z M2224.2,820.6c-4.1,1.8-7.6,3.9-5,9.4L2224.2,820.6z M2763.1,822l-2.6-0.6
	c-0.2,1.8-0.5,3.5-0.6,5.3c0.5,0.2,1.1,0.3,1.6,0.4C2762.1,825.4,2762.6,823.7,2763.1,822z M2768,737.3l2.4,0.7l1.2-5.3l-1.8-0.5
	L2768,737.3z M2247.8,813.9l2,0.8l2.5-6.6l-1.3-0.5L2247.8,813.9z M2505.4,842l1.4,0.7c1.1-2.3,2.2-4.7,3.3-7l-1.6-0.7L2505.4,842z
	 M2726.8,790.2l-1.4-0.6l-2,4.6l1.4,0.6C2725.4,793.2,2726.1,791.7,2726.8,790.2z M2107,788.2l-1.5-0.3c-0.3,1.3-0.6,2.6-0.8,3.9
	l1.4,0.3L2107,788.2z M2258.2,829.4l0.4-1.5c-0.5,0-1,0-1.4,0c-0.1,0-0.3,0.7-0.2,0.8C2257.3,828.9,2257.8,829.2,2258.2,829.4z
	 M2655,838.7l-1.1-0.3l-0.8,3l1.1,0.3L2655,838.7z M2699.9,843.9l-1.1-0.5c-0.4,1-0.8,2-1.1,3c0.2,0.1,0.5,0.2,0.7,0.3
	C2698.9,845.8,2699.4,844.8,2699.9,843.9L2699.9,843.9z M2399.8,824.5l-0.8-1.3c-0.2,0.2-0.6,0.4-0.7,0.7c0,0.6,0,1.2,0.1,1.8
	L2399.8,824.5z M2242.6,829.8l-0.6-0.7c-0.4,0.4-0.8,0.8-1.2,1.2c0,0,0.3,0.5,0.5,0.7C2241.8,830.6,2242.2,830.2,2242.6,829.8
	L2242.6,829.8z M2038.5,444.9l-0.1-0.9c-0.5,0.3-0.9,0.6-1.3,1c-0.1,0.1,0,0.5,0.1,0.8L2038.5,444.9z M2098.7,800.2
	c-0.3-0.4-0.6-0.8-0.9-1.2c-0.1,0-0.7,0.3-0.7,0.5c0,0.5,0.1,1.1,0.2,1.6L2098.7,800.2z M2647,782.8c-0.4,0.5-0.8,1-1.1,1.5l1.2,0.6
	c0.2-0.6,0.5-1.1,0.7-1.7C2647.5,783.1,2647.3,782.9,2647,782.8z M2218.1,619.4l1.3-1.1c-0.4-0.3-0.9-0.5-1.4-0.8
	c-0.2-0.1-0.7,0.5-0.7,0.6C2217.5,618.6,2217.8,619,2218.1,619.4z"/>
<path class="st1" d="M2675.6,666.4c5.6,0.4,11.2,0.8,16.8,1.1c19.8,1.4,33.8,12.2,42.1,29.1c4,8.1,3.4,18.6,4.9,28
	c-14.6,1.2-36.1-5.5-45.7-13.5c-8.2-6.7-12-15.5-13.5-25.8c-0.9-6.5-3-12.8-4.6-19.2L2675.6,666.4z"/>
<path class="st0" d="M2559.8,759.2c-0.4,2.8-0.4,5.8-1.3,8.4c-3.9,10.8-8,21.6-12.4,32.2c-2.5,6-5.8,11.7-8.7,17.5l0.1,0.2h-7.7
	c0.7-2.4,0.9-4.9,2-7c4.9-9.4,10.2-18.7,15.1-28.1c3.1-5.9,6-11.9,8.9-17.8L2559.8,759.2z"/>
<path class="st0" d="M2146.8,678c1.5,0.6,3.9,0.8,4.4,1.9c0.7,1.7,0.4,3.9,0.1,5.9c-2.4,14.8-6.7,29-14.7,41.8
	c2-12.6,3.8-25.2,6.2-37.7c0.8-4.2,2.8-8.1,4.3-12.2L2146.8,678z"/>
<path class="st0" d="M2423.1,787c0.9,0.7,2.6,1.5,2.5,2c-2.4,12.4-4.8,24.8-13.2,34.9c-0.3,0.4-1.2,0.4-2.8,0.9
	c-0.7-14.3,6.8-25.1,13-36.5C2422.8,787.9,2423,787.5,2423.1,787z"/>
<path class="st0" d="M2524.7,773.1c0.3,1.2,1.2,2.7,0.8,3.6c-8.2,17.8-18.2,34.6-31.1,49.5c7.2-19.3,19.6-35.6,30.3-52.9
	L2524.7,773.1z"/>
<path class="st0" d="M2170.3,787.7c0.2,1.7,1.1,3.9,0.5,5.1c-3.6,7-7.6,13.8-11.6,20.7c-1.8,3-4.1,5.3-8.7,3.2
	c0.1-6.4,5.7-9.7,8.7-14.4s6.6-9,10-13.5C2169.6,788.5,2170,788.1,2170.3,787.7z"/>
<path class="st0" d="M2329.9,780.9l3.3-1.9c0.3,5.8-2.7,9.2-5.1,12.8l-2-0.7c1.2-3.4,2.4-6.8,3.6-10.2L2329.9,780.9z"/>
<path class="st1" d="M2675.8,666.2c-4.4-4-9.6-7.5-10-15.7c7,4.1,7.9,10.3,9.8,15.9L2675.8,666.2z"/>
<path class="st0" d="M2668.3,786.3c-3.8,6.4-4.8,6.6-8.5,1.6l-0.2,0.3l7.2-4.1L2668.3,786.3z"/>
<path class="st1" d="M2663.9,810.3c0.4-4.3,1.8-8.1,4.9-11l1.8,1.1c-2.3,3.3-4.6,6.5-6.9,9.8L2663.9,810.3z"/>
<path class="st1" d="M2215.2,748.1l-2,2c0.3-2,0.5-4,0.7-5.9l1.9,0.3C2215.6,745.6,2215.4,746.8,2215.2,748.1z"/>
<path class="st1" d="M2625.8,732.2c0.8-2.3,1.7-4.7,2.5-7c1.8,3.7,0.4,5.7-2.7,6.9L2625.8,732.2z"/>
<path class="st1" d="M2782,752.4l2.3-7l1.7,0.9l-4.2,5.9L2782,752.4z"/>
<path class="st1" d="M2400.2,756.6c0.1-2.7,0.3-5.4,0.5-8.1l1.9,0.3l-2.5,7.7L2400.2,756.6z"/>
<path class="st1" d="M2423.9,756.3c0.8-2.3,1.5-4.6,2.3-6.9l1.8,1l-4.3,5.7L2423.9,756.3z"/>
<path class="st1" d="M2666.9,784l-7.2,4.1l6.2-7.8l-0.2-0.2C2666.1,781.5,2666.5,782.7,2666.9,784z"/>
<path class="st1" d="M2385.9,730.3c0.7-2.3,1.4-4.6,2.1-6.9l2,1.1l-4.3,5.7L2385.9,730.3z"/>
<path class="st1" d="M2665.9,780.3l2.7-5.2l2.4,2l-5.3,3L2665.9,780.3z"/>
<path class="st1" d="M2503.9,768.3l2.6-5.4l1.4,1l-4.2,4.2L2503.9,768.3z"/>
<path class="st1" d="M2465.4,754.3c0,0,0.1,0.3,0.1,0.4l3.4-3.7l0.9,1.4L2465.4,754.3z"/>
<path class="st1" d="M2273.9,752.4l2.3-5.2l1.1,0.8l-3.6,4.2L2273.9,752.4z"/>
<path class="st1" d="M2143.9,742.4l2.3-5.1l1.1,0.8l-3.5,4.2L2143.9,742.4z"/>
<path class="st1" d="M2116.2,540.6c0.3-2.1,0.6-4.2,0.9-6.3l1.4,0.4c-0.8,1.9-1.7,3.8-2.5,5.7L2116.2,540.6z"/>
<path class="st1" d="M2643.9,726.3c0.8-1.7,1.5-3.5,2.3-5.2l1.2,0.8l-3.7,4.2L2643.9,726.3z"/>
<path class="st0" d="M2734.3,800.7c-1.8-21.8,15.4-58.9,29.5-64.4c3.1,6.1,3.7,12.8-1.2,17.3c-4.2,3.8-4.7,7.4-4.4,12.1
	c0.1,0.9-0.7,1.8-1.4,3.4l-9.3-3.4C2757.7,782.9,2751.4,793.4,2734.3,800.7z"/>
<path class="st0" d="M2296.9,798c3.6-23.8,7.2-47.6,10.9-71.4l2-0.2c0.6,1.6,1.5,3.1,1.7,4.7c1.4,13.2,2.7,26.5,4.1,39.7
	c0.7,6.4-1.3,11.5-6.2,16c-3.8,3.5-6.7,8-10,12.1L2296.9,798z"/>
<path class="st0" d="M2110.9,800.3c6.2-13.2,12.5-25.3,20.1-36.7l2.3,0.8c-1.9,9.2-3.6,18.5-6,27.7c-0.8,3-3.1,5.9-5.2,8.3
	C2119.1,803.8,2115.4,804.3,2110.9,800.3z"/>
<path class="st0" d="M2297.8,829.7c-1.3-14.8,6.7-32.1,17.1-42c3.1,6.5,2.9,7.6-5.4,21.9C2305.7,816.3,2301.8,823,2297.8,829.7z"/>
<path class="st0" d="M2281.8,792.5c-1.5,3.9-3.5,7.7-4.5,11.7c-1.6,7.1-2.5,14.4-3.9,21.5c-0.5,2.6-1.4,5.3-6.4,4.3
	c1.2-5,2.4-10,3.9-16.7l-6.3,6.3l-1.3-0.8c0.4-1.5,0.5-3.1,1.2-4.4c4-6.9,8.2-13.7,12.4-20.5c1.1-1.8,2.4-3.4,4.7-1.2L2281.8,792.5z
	"/>
<path class="st0" d="M2756.1,818.8c-5.3-6.5-3.1-16,5.8-25.2C2767,803.3,2764.8,812.8,2756.1,818.8z"/>
<path class="st0" d="M2253.3,785.3c0.7,5.3-0.6,10.7-3.7,15.2c-5.3,8.3-10.5,16.7-16.3,24.7c-0.2-7.8,11.1-29.2,20.1-39.6
	L2253.3,785.3z"/>
<path class="st0" d="M2466.8,792.8l-10.6,9.7l-1.5-1.1c7.1-12.8,14.1-25.6,21.2-38.3l2.3,1C2474.4,773.7,2470.6,783.3,2466.8,792.8
	L2466.8,792.8z"/>
<path class="st0" d="M2281.6,792.7l7.2-19.5c1.6,9.7-4.2,38.3-10.2,48.1c1.2-11.1,2.2-20,3.2-28.9L2281.6,792.7z"/>
<path class="st0" d="M2679.8,800.5c1.6-2.9,3.3-6.4,7.4-3.8c3.1,2,2.5,5.2,0.9,7.9c-3.6,6.3-7.9,12.1-12.8,17.3
	c1.5-7.2,3.1-14.5,4.6-21.7L2679.8,800.5z"/>
<path class="st0" d="M2357.9,803.8c-0.7-1.2-2.3-2.8-2-3.5c5.3-12.7,11.9-24.9,19.8-36.2c-2.7,10.2-5.7,20.1-11.7,28.9
	c-2.4,3.5-4.3,7.3-6.4,11L2357.9,803.8z"/>
<path class="st0" d="M2625.1,785.1c0.7-3.8,1.2-7.7,2.1-11.5c0.8-3.4,1.9-6.7,3.2-10.9c6,9.9,5.6,16.7-1.2,26.1l-4.1-3.8
	L2625.1,785.1z"/>
<path class="st0" d="M2136.3,702.4c0.9,9.2-1.9,17.3-6.6,25C2131.2,718.8,2128,709.2,2136.3,702.4z"/>
<path class="st0" d="M2317,806.7c1.7,10.4-4.1,15.7-9.4,21.1C2307.9,820.1,2311.1,813.7,2317,806.7z"/>
<path class="st0" d="M2502.1,801.9l-11.4,18.8C2490,811.7,2494.7,806,2502.1,801.9z"/>
<path class="st0" d="M2625,784.9c1.8,9.4,0.4,18.2-6.3,28.3c1.4-11,3.2-19.7,6.4-28.1C2625.1,785,2625,785,2625,784.9z"/>
<path class="st0" d="M2678.8,829.6l8.3-15.7C2688.2,821.2,2685.5,826.5,2678.8,829.6z"/>
<path class="st0" d="M2201.1,625.5c-0.5,3.3-0.8,6.6-5.8,6.1c-2.6-0.3-5.4,0.6-9.5,1.2c4.3-6.8,10.3-5.9,15.4-7.1L2201.1,625.5z"/>
<path class="st0" d="M2516.9,844.8l7.1-16.4l2.6,1.1c-2.5,5.3-5.1,10.5-7.6,15.7L2516.9,844.8z"/>
<path class="st0" d="M2207.4,823.8l9.2-14.1c0.8,7.2-2.6,11.9-7.3,15.7L2207.4,823.8z"/>
<path class="st0" d="M2448.6,824.7l-9,12.8C2441.3,828.3,2441.8,827.7,2448.6,824.7z"/>
<path class="st0" d="M2357.7,804c0.7,0.7,2,1.5,1.9,1.9c-1.4,5.8-3.9,11.3-7.3,16.2l-1.8-0.8l7.4-17.5L2357.7,804z"/>
<path class="st0" d="M2466.8,792.9c0.6,7.7-2.2,14.3-7.7,20.1C2461.6,806.2,2464.2,799.5,2466.8,792.9
	C2470.6,782.7,2466.8,792.9,2466.8,792.9z"/>
<path class="st0" d="M2380.3,819.8l4.4-12l2,0.7c0,4.5-1,8.7-4.1,12.1L2380.3,819.8z"/>
<path class="st0" d="M2632,818l4.5-8.9c2.7,5.8,0.2,7.9-1.9,10.1L2632,818z"/>
<path class="st0" d="M2108.2,778.1l4.9-14.4l2.5,1c-1.3,5-3.4,9.6-7.6,13.2L2108.2,778.1z"/>
<path class="st0" d="M2224.2,820.6l-5,9.4C2216.6,824.5,2220.1,822.4,2224.2,820.6z"/>
<path class="st0" d="M2763.1,822c-0.5,1.7-1,3.4-1.5,5.1c-0.6-0.1-1.1-0.2-1.6-0.4c0.1-1.8,0.3-3.5,0.6-5.3L2763.1,822z"/>
<path class="st0" d="M2768,737.3l1.8-5.1l1.8,0.5l-1.2,5.3L2768,737.3z"/>
<path class="st0" d="M2247.8,813.9l3.2-6.4l1.3,0.5l-2.5,6.6L2247.8,813.9z"/>
<path class="st0" d="M2505.4,842l3.2-7.1l1.6,0.7c-1.1,2.3-2.2,4.7-3.3,7L2505.4,842z"/>
<path class="st0" d="M2201.2,625.7c2.7-0.8,5.1-3.9,9.1-1.4c-3.2,3.4-6.4,1.2-9.2,1.2L2201.2,625.7z"/>
<path class="st0" d="M2534,828.4c-1,3.3-2,6.7-3,10c-1.4-4.3,0.2-7.3,3.2-9.9L2534,828.4z"/>
<path class="st0" d="M2726.8,790.2c-0.7,1.5-1.4,3.1-2.1,4.6l-1.4-0.6l2-4.6L2726.8,790.2z"/>
<path class="st0" d="M2108,777.9l-5.2,6.8c-0.4-4.1,2.3-5.5,5.4-6.6L2108,777.9z"/>
<path class="st0" d="M2107,788.2l-1,3.9l-1.4-0.3c0.3-1.3,0.6-2.6,0.8-3.9L2107,788.2z"/>
<path class="st0" d="M2258.2,829.4c-0.4-0.2-0.9-0.5-1.2-0.8c-0.1-0.1,0.1-0.7,0.2-0.8c0.5,0,1,0,1.4,0
	C2258.5,828.4,2258.4,828.9,2258.2,829.4z"/>
<path class="st0" d="M2655,838.7l-0.8,3.1l-1.2-0.3l0.8-3L2655,838.7z"/>
<path class="st0" d="M2699.9,843.9c-0.5,0.9-1,1.8-1.5,2.7c-0.2-0.1-0.5-0.2-0.7-0.3c0.4-1,0.7-2,1.1-3L2699.9,843.9z"/>
<path class="st0" d="M2399.8,824.5l-1.4,1.1c-0.1-0.6-0.1-1.2-0.1-1.8c0-0.2,0.4-0.4,0.7-0.7L2399.8,824.5z"/>
<path class="st0" d="M2242.7,829.8l-1.2,1.2c-0.2-0.2-0.6-0.6-0.5-0.7c0.4-0.4,0.8-0.8,1.2-1.2
	C2242.3,829.3,2242.5,829.5,2242.7,829.8z"/>
<path class="st0" d="M2038.5,444.9l-1.3,1c0-0.3-0.2-0.7-0.1-0.8c0.4-0.4,0.8-0.7,1.3-1L2038.5,444.9z"/>
<path class="st0" d="M2537.4,817.4c-1.1,3.7-2.3,7.3-3.4,11l0.2,0.2c1.1-3.7,2.3-7.3,3.4-11L2537.4,817.4z"/>
<path class="st0" d="M2098.7,800.2l-1.5,0.8c-0.1-0.5-0.2-1.1-0.2-1.6c0-0.2,0.6-0.5,0.7-0.5
	C2098.1,799.4,2098.4,799.8,2098.7,800.2z"/>
<path class="st0" d="M2647,782.8c0.3,0.1,0.5,0.2,0.8,0.3c-0.2,0.6-0.4,1.2-0.7,1.7l-1.2-0.6C2646.3,783.8,2646.6,783.3,2647,782.8z
	"/>
<path class="st0" d="M2218.1,619.4c-0.3-0.4-0.6-0.8-0.8-1.3c0-0.1,0.5-0.6,0.7-0.6c0.5,0.2,1,0.5,1.4,0.8L2218.1,619.4z"/>
</svg>
